<svg width="277" height="301" viewBox="0 0 277 301" fill="none" xmlns="http://www.w3.org/2000/svg">
<path d="M248 173.61H21V173.723H248V173.61Z" fill="#EBEBEB"/>
<path d="M225.255 177.932H183.986V178.045H225.255V177.932Z" fill="#EBEBEB"/>
<path d="M171.374 176.701H160.074V176.815H171.374V176.701Z" fill="#EBEBEB"/>
<path d="M197.202 182.149H179.682V182.263H197.202V182.149Z" fill="#EBEBEB"/>
<path d="M55.0955 181.387H44.8169V181.5H55.0955V181.387Z" fill="#EBEBEB"/>
<path d="M71.344 181.387H59.136V181.5H71.344V181.387Z" fill="#EBEBEB"/>
<path d="M123.218 179.471H101.953V179.584H123.218V179.471Z" fill="#EBEBEB"/>
<path d="M128.598 153.361H40.9352C40.2485 153.36 39.5903 153.086 39.1051 152.6C38.6199 152.114 38.3474 151.456 38.3474 150.769V27.5396C38.3534 26.8568 38.6285 26.2039 39.1131 25.7228C39.5976 25.2417 40.2524 24.9711 40.9352 24.97H128.598C129.286 24.97 129.945 25.2431 130.431 25.7292C130.917 26.2154 131.19 26.8748 131.19 27.5623V150.769C131.19 151.456 130.917 152.116 130.431 152.602C129.945 153.088 129.286 153.361 128.598 153.361ZM40.9352 25.0608C40.2786 25.062 39.6492 25.3237 39.1853 25.7884C38.7215 26.2532 38.4609 26.883 38.4609 27.5396V150.769C38.4609 151.425 38.7215 152.055 39.1853 152.52C39.6492 152.985 40.2786 153.246 40.9352 153.248H128.598C129.255 153.246 129.885 152.985 130.35 152.52C130.814 152.056 131.076 151.426 131.077 150.769V27.5396C131.076 26.8826 130.814 26.2527 130.35 25.7881C129.885 25.3235 129.255 25.062 128.598 25.0608H40.9352Z" fill="#EBEBEB"/>
<path d="M226.803 153.361H139.135C138.448 153.36 137.789 153.086 137.304 152.601C136.818 152.115 136.544 151.456 136.543 150.769V27.5396C136.55 26.8564 136.826 26.2035 137.312 25.7225C137.797 25.2415 138.452 24.9711 139.135 24.97H226.803C227.485 24.9723 228.138 25.2434 228.622 25.7244C229.105 26.2054 229.38 26.8576 229.386 27.5396V150.769C229.386 151.455 229.114 152.113 228.63 152.599C228.146 153.085 227.489 153.359 226.803 153.361ZM139.135 25.0608C138.478 25.062 137.848 25.3235 137.384 25.7881C136.919 26.2527 136.658 26.8826 136.656 27.5396V150.769C136.658 151.426 136.919 152.056 137.384 152.52C137.848 152.985 138.478 153.246 139.135 153.248H226.803C227.46 153.246 228.09 152.985 228.554 152.52C229.019 152.056 229.28 151.426 229.282 150.769V27.5396C229.28 26.8826 229.019 26.2527 228.554 25.7881C228.09 25.3235 227.46 25.062 226.803 25.0608H139.135Z" fill="#EBEBEB"/>
<path d="M44.8123 173.605H99.0925L99.0925 53.5629H44.8123L44.8123 173.605Z" fill="#F0F0F0"/>
<path d="M44.8169 173.605H96.5229L96.5229 53.5629H44.8169L44.8169 173.605Z" fill="#F5F5F5"/>
<path d="M93.7988 170.886V56.2914H47.5408L47.5408 170.886H93.7988Z" fill="#F0F0F0"/>
<path d="M62.4865 110.322H53.0569C52.7358 110.321 52.4282 110.193 52.2011 109.966C51.974 109.739 51.8459 109.431 51.8447 109.11C51.8459 108.789 51.974 108.481 52.2011 108.254C52.4282 108.027 52.7358 107.899 53.0569 107.898H62.4865C62.8076 107.899 63.1152 108.027 63.3423 108.254C63.5694 108.481 63.6975 108.789 63.6987 109.11C63.6975 109.431 63.5694 109.739 63.3423 109.966C63.1152 110.193 62.8076 110.321 62.4865 110.322Z" fill="white"/>
<path d="M48.249 170.886L48.249 56.2914H47.5408L47.5408 170.886H48.249Z" fill="#F0F0F0"/>
<path d="M124.526 171.331H132.607V136.282H124.526V171.331Z" fill="#F0F0F0"/>
<path d="M91.2021 173.555H131.054V171.335H91.2021V173.555Z" fill="#F0F0F0"/>
<path d="M124.526 136.286H89.6494V171.335H124.526V136.286Z" fill="#F5F5F5"/>
<path d="M121.343 140.599H92.8228V152.095H121.343V140.599Z" fill="#F0F0F0"/>
<path d="M121.343 155.522H92.8228V167.018H121.343V155.522Z" fill="#F0F0F0"/>
<path d="M103.882 141.566H110.288C110.496 141.565 110.695 141.482 110.842 141.335C110.989 141.188 111.073 140.989 111.074 140.781C111.074 140.572 110.991 140.372 110.844 140.224C110.697 140.076 110.497 139.992 110.288 139.991H103.882C103.674 139.992 103.474 140.076 103.327 140.224C103.18 140.372 103.097 140.572 103.097 140.781C103.098 140.989 103.181 141.188 103.328 141.335C103.475 141.482 103.674 141.565 103.882 141.566Z" fill="#F5F5F5"/>
<path d="M103.882 156.494H110.288C110.494 156.493 110.691 156.411 110.838 156.267C110.984 156.123 111.069 155.927 111.074 155.722C111.073 155.514 110.989 155.315 110.842 155.168C110.695 155.021 110.496 154.938 110.288 154.937H103.882C103.674 154.938 103.475 155.021 103.328 155.168C103.181 155.315 103.098 155.514 103.097 155.722C103.102 155.927 103.186 156.123 103.333 156.267C103.48 156.411 103.677 156.493 103.882 156.494Z" fill="#F5F5F5"/>
<path d="M109.743 135.596C109.585 135.595 109.433 135.531 109.321 135.419C109.209 135.307 109.145 135.155 109.144 134.997V116.787C109.144 116.628 109.207 116.476 109.32 116.363C109.432 116.251 109.584 116.188 109.743 116.188C109.902 116.189 110.054 116.252 110.166 116.364C110.278 116.477 110.341 116.628 110.343 116.787V134.997C110.341 135.155 110.278 135.307 110.166 135.419C110.054 135.531 109.902 135.595 109.743 135.596Z" fill="#F5F5F5"/>
<path d="M115.35 134.888H104.136V136.3H115.35V134.888Z" fill="#F0F0F0"/>
<path d="M112.849 124.7C112.77 124.7 112.694 124.669 112.638 124.614C112.582 124.559 112.55 124.484 112.549 124.405V115.316C112.55 115.237 112.582 115.161 112.638 115.105C112.694 115.049 112.77 115.017 112.849 115.016C112.928 115.017 113.003 115.049 113.059 115.105C113.115 115.161 113.147 115.237 113.148 115.316V124.396C113.149 124.436 113.142 124.475 113.127 124.512C113.112 124.549 113.09 124.582 113.062 124.611C113.034 124.639 113.001 124.662 112.964 124.677C112.928 124.692 112.888 124.7 112.849 124.7Z" fill="#F0F0F0"/>
<path d="M101.022 118.449C101.022 118.449 101.244 109.868 109.743 109.868C118.242 109.868 118.46 118.439 118.46 118.439L101.022 118.449Z" fill="#F0F0F0"/>
<path d="M174.593 130.57C174.833 130.57 175.079 130.57 175.324 130.593C177.835 130.775 180.196 131.857 181.972 133.642C183.748 135.426 184.82 137.792 184.989 140.304C185.061 141.445 184.948 142.591 184.653 143.696C183.515 148.128 182.966 152.69 183.019 157.266V170.586C183.02 170.817 182.974 171.045 182.886 171.258C182.798 171.472 182.669 171.665 182.505 171.828C182.342 171.991 182.148 172.12 181.935 172.208C181.721 172.295 181.493 172.34 181.262 172.338H138.981V130.57H174.593Z" fill="#F0F0F0"/>
<path d="M128.562 140.99C128.566 139.509 128.887 138.046 129.501 136.698C130.116 135.351 131.011 134.15 132.127 133.176C133.242 132.202 134.553 131.477 135.971 131.049C137.389 130.622 138.882 130.502 140.35 130.697C141.818 130.893 143.228 131.399 144.485 132.182C145.742 132.965 146.817 134.008 147.639 135.24C148.461 136.471 149.011 137.864 149.252 139.326C149.493 140.787 149.42 142.283 149.037 143.714C147.903 148.146 147.355 152.709 147.407 157.284V170.604C147.407 170.834 147.362 171.062 147.274 171.274C147.186 171.486 147.057 171.679 146.894 171.842C146.731 172.004 146.538 172.133 146.325 172.22C146.113 172.308 145.885 172.353 145.655 172.352H132.303C132.073 172.352 131.846 172.307 131.634 172.219C131.422 172.131 131.229 172.002 131.067 171.84C130.904 171.678 130.776 171.485 130.688 171.273C130.6 171.061 130.555 170.834 130.555 170.604V156.485C130.593 152.194 130.05 147.917 128.939 143.773C128.688 142.866 128.561 141.93 128.562 140.99Z" fill="#F5F5F5"/>
<path d="M153.336 172.338H191.295V146.978H153.336V172.338Z" fill="#F0F0F0"/>
<path d="M222.667 152.716H171.86V113.822C171.86 111.732 172.69 109.727 174.168 108.249C175.646 106.771 177.651 105.941 179.741 105.941H214.785C216.876 105.941 218.88 106.771 220.358 108.249C221.836 109.727 222.667 111.732 222.667 113.822V152.716Z" fill="#E0E0E0"/>
<path d="M212.738 152.716H161.931V113.441C161.931 111.451 162.721 109.542 164.129 108.134C165.536 106.727 167.445 105.936 169.435 105.936H205.215C207.205 105.936 209.114 106.727 210.522 108.134C211.929 109.542 212.72 111.451 212.72 113.441V152.716H212.738Z" fill="#F5F5F5"/>
<path d="M188.817 154.991H153.827C153.225 154.991 152.647 154.752 152.222 154.326C151.796 153.9 151.557 153.323 151.557 152.721V146.969C151.557 146.367 151.796 145.789 152.222 145.364C152.647 144.938 153.225 144.699 153.827 144.699H188.817C188.998 144.699 189.173 144.771 189.301 144.9C189.43 145.028 189.502 145.203 189.502 145.384V154.31C189.501 154.491 189.428 154.664 189.3 154.792C189.171 154.919 188.998 154.991 188.817 154.991Z" fill="#E0E0E0"/>
<path d="M226.412 130.57C226.653 130.57 226.893 130.57 227.143 130.593C229.653 130.776 232.013 131.859 233.789 133.643C235.564 135.427 236.635 137.793 236.804 140.304C236.88 141.445 236.767 142.591 236.468 143.696C235.33 148.129 234.78 152.693 234.834 157.27V170.59C234.834 170.82 234.789 171.048 234.7 171.26C234.612 171.473 234.483 171.666 234.32 171.828C234.158 171.99 233.964 172.119 233.752 172.207C233.539 172.294 233.311 172.339 233.081 172.338H190.796V130.57H226.412Z" fill="#F0F0F0"/>
<path d="M180.381 140.99C180.363 138.274 181.406 135.659 183.288 133.702C185.169 131.744 187.741 130.599 190.455 130.51C193.169 130.421 195.81 131.396 197.816 133.226C199.822 135.057 201.033 137.598 201.193 140.309C201.264 141.45 201.151 142.595 200.857 143.7C199.719 148.132 199.169 152.695 199.222 157.27V170.59C199.222 171.054 199.038 171.499 198.71 171.826C198.383 172.154 197.938 172.338 197.474 172.338H184.118C183.888 172.338 183.661 172.293 183.449 172.205C183.237 172.117 183.044 171.989 182.882 171.826C182.719 171.664 182.591 171.471 182.503 171.259C182.415 171.047 182.37 170.82 182.37 170.59V156.485C182.408 152.194 181.866 147.918 180.758 143.773C180.508 142.866 180.381 141.93 180.381 140.99Z" fill="#F5F5F5"/>
<path d="M139.721 173.61H225.668C225.834 173.61 226 173.577 226.154 173.513C226.308 173.449 226.447 173.355 226.565 173.237C226.683 173.119 226.776 172.979 226.839 172.824C226.903 172.67 226.935 172.505 226.934 172.338H138.454C138.454 172.505 138.486 172.67 138.549 172.824C138.613 172.979 138.706 173.119 138.824 173.237C138.941 173.355 139.081 173.449 139.235 173.513C139.389 173.577 139.554 173.61 139.721 173.61Z" fill="#E0E0E0"/>
<path d="M190.624 76.213H218.268V46.0628H190.624V76.213Z" fill="#E0E0E0"/>
<path d="M188.976 76.213H217.337V46.0628H188.976V76.213Z" fill="#F5F5F5"/>
<path d="M214.958 73.8386V48.4373H191.345V73.8386H214.958Z" fill="white"/>
<path d="M203.154 54.7161L209.61 65.9026H196.698L203.154 54.7161Z" fill="#F5F5F5"/>
<path d="M151.843 93.8145H179.487V63.6644H151.843V93.8145Z" fill="#E0E0E0"/>
<path d="M150.195 93.8145H178.556V63.6644H150.195V93.8145Z" fill="#F5F5F5"/>
<path d="M176.177 91.4401V66.0388H152.565V91.4401H176.177Z" fill="white"/>
<path d="M161.486 83.2681L158.685 78.4148C158.393 77.9083 158.24 77.334 158.241 76.7495C158.241 76.1651 158.396 75.5912 158.688 75.0852C158.981 74.5793 159.401 74.1592 159.907 73.867C160.414 73.5749 160.988 73.421 161.572 73.4208H167.188C167.772 73.4216 168.346 73.5758 168.852 73.8679C169.358 74.16 169.778 74.5799 170.071 75.0855C170.364 75.5911 170.519 76.1647 170.52 76.749C170.522 77.3333 170.37 77.9077 170.08 78.4148L167.279 83.2681C166.987 83.7785 166.565 84.2027 166.057 84.4978C165.548 84.7928 164.97 84.9482 164.382 84.9482C163.794 84.9482 163.217 84.7928 162.708 84.4978C162.199 84.2027 161.778 83.7785 161.486 83.2681Z" fill="#F5F5F5"/>
<path d="M164.691 45.0822H60.0349L66.9221 187.611H171.578L164.691 45.0822Z" fill="#D7D7D7"/>
<path opacity="0.2" d="M164.691 45.0822H60.0349L66.9221 187.611H171.578L164.691 45.0822Z" fill="black"/>
<path d="M165.658 45.0822H61.002L67.8937 187.611H172.55L165.658 45.0822Z" fill="#D7D7D7"/>
<path opacity="0.2" d="M160.133 49.8765H65.7871L72.3792 181.169L154.417 181.06L168.051 168.974L160.133 49.8765Z" fill="black"/>
<path d="M160.855 49.8719C161.861 89.1912 165.036 128.425 170.366 167.394C162.89 172.54 155.452 177.685 148.052 182.83H77.4912C70.8312 138.797 66.9223 94.3915 65.7871 49.8719H160.855Z" fill="white"/>
<path d="M170.366 167.394C162.89 172.54 155.452 177.685 148.052 182.83C149.668 176.02 151.352 169.21 153.105 162.4L170.366 167.394Z" fill="#EBEBEB"/>
<path d="M91.37 61.8847C91.5486 66.6911 91.7575 71.5004 91.9966 76.3128H77.573C77.3309 71.5004 77.122 66.6911 76.9465 61.8847H91.37ZM92.841 60.3638H75.3711C75.5739 66.1841 75.8266 72.0074 76.1293 77.8338H93.6037C93.3011 72.0104 93.0483 66.1871 92.8455 60.3638H92.841Z" fill="#D7D7D7"/>
<path d="M150.308 67.301H100.904C100.859 66.2159 100.818 65.1263 100.777 64.0413H150.177C150.217 65.1263 150.263 66.2159 150.308 67.301Z" fill="#E0E0E0"/>
<path d="M139.871 74.1564H101.208C101.158 73.0668 101.104 71.9817 101.058 70.8967H139.716C139.768 71.9832 139.819 73.0698 139.871 74.1564Z" fill="#E0E0E0"/>
<path d="M92.7865 90.1417C93.0892 94.9541 93.4267 99.7665 93.799 104.579H79.3709C78.9986 99.7665 78.6611 94.9541 78.3584 90.1417H92.7865ZM94.2121 88.6208H76.7422C77.0993 94.4471 77.5064 100.273 77.9634 106.1H95.4561C95.0021 100.276 94.5935 94.4502 94.2303 88.6208H94.2121Z" fill="#D7D7D7"/>
<path d="M120.608 95.5625H102.448C102.375 94.4729 102.298 93.3878 102.23 92.2982H120.39C120.458 93.3878 120.53 94.4729 120.608 95.5625Z" fill="#E0E0E0"/>
<path d="M137.801 95.5625H124.448C124.376 94.4729 124.299 93.3878 124.23 92.2982H137.583C137.651 93.3878 137.723 94.4729 137.801 95.5625Z" fill="#E0E0E0"/>
<path d="M146.181 102.422H102.947C102.865 101.333 102.788 100.248 102.706 99.1581H145.941C146.022 100.248 146.1 101.333 146.181 102.422Z" fill="#E0E0E0"/>
<path d="M94.9519 118.412C95.3847 123.225 95.8508 128.037 96.3502 132.849H81.9221C81.4227 128.037 80.9566 123.225 80.5238 118.412H94.9519ZM96.3412 116.891H78.8667C79.3812 122.721 79.9442 128.549 80.5556 134.375H98.03C97.4247 128.546 96.8618 122.718 96.3412 116.891Z" fill="#D7D7D7"/>
<path d="M154.521 127.433H105.113L105.439 130.693H154.848L154.521 127.433Z" fill="#E0E0E0"/>
<path d="M143.126 120.573H104.463C104.563 121.658 104.663 122.748 104.768 123.833H143.426C143.326 122.748 143.221 121.672 143.126 120.573Z" fill="#E0E0E0"/>
<path d="M97.8712 146.683C98.4342 151.495 99.0289 156.306 99.6554 161.116H85.2273C84.6008 156.309 84.006 151.498 83.4431 146.683H97.8712ZM99.2332 145.162H81.7451C82.411 150.991 83.1298 156.816 83.9016 162.636H101.358C100.592 156.816 99.8733 150.991 99.2014 145.162H99.2332Z" fill="#D7D7D7"/>
<path d="M157.241 152.09H107.832C107.7 151 107.569 149.915 107.442 148.826H156.846C156.978 149.929 157.105 151.014 157.241 152.09Z" fill="#E0E0E0"/>
<path d="M131.181 158.959H108.69C108.549 157.874 108.413 156.784 108.277 155.699H130.768C130.904 156.784 131.04 157.874 131.181 158.959Z" fill="#E0E0E0"/>
<path d="M144.611 158.959H134.899C134.759 157.874 134.623 156.784 134.486 155.699H144.197C144.334 156.784 144.488 157.874 144.611 158.959Z" fill="#E0E0E0"/>
<path d="M85.0139 74.2517L84.3738 73.2347C82.9755 71.0101 80.1243 69.0262 79.1392 68.445L79.8746 67.1421C81.8075 68.3158 83.5344 69.7989 84.9867 71.5322C87.184 68.5404 90.4347 65.4486 94.8839 62.1254L95.8237 63.3512C91.0748 66.906 87.7515 70.1612 85.6541 73.2938L85.0139 74.2517Z" fill="#D7D7D7"/>
<path d="M86.7392 102.518L86.0718 101.501C84.619 99.2762 81.7134 97.2877 80.7146 96.7065L81.4092 95.4036C83.3789 96.5777 85.1464 98.0616 86.6438 99.7983C88.7595 96.8019 91.9239 93.7101 96.2868 90.3823C96.6091 90.7909 96.936 91.1995 97.2584 91.6127C92.6049 95.172 89.3678 98.4227 87.3566 101.56C87.1478 101.878 86.9435 102.2 86.7392 102.518Z" fill="#D7D7D7"/>
<path d="M89.2453 130.861L88.5506 129.844C87.0343 127.619 84.0742 125.631 83.0618 125.054C83.2797 124.6 83.5158 124.183 83.7246 123.751C85.725 124.927 87.5294 126.409 89.0727 128.142C91.1112 125.145 94.1938 122.058 98.4614 118.726L99.4693 119.956C94.9293 123.515 91.7513 126.766 89.8309 129.903L89.2453 130.861Z" fill="#D7D7D7"/>
<path d="M135.013 174.999C132.334 174.999 130.791 174.009 129.429 173.137C128.067 172.266 126.895 171.512 124.635 171.512C122.374 171.512 121.366 172.302 120.299 173.137C119.232 173.973 117.924 174.999 115.246 174.999C112.567 174.999 111.024 174.009 109.666 173.137C108.309 172.266 107.137 171.512 104.872 171.512C102.606 171.512 101.603 172.302 100.536 173.137C99.4694 173.973 98.1618 174.999 95.4878 174.999C92.8137 174.999 91.2656 174.009 89.9036 173.137C88.5416 172.266 87.3748 171.512 85.1093 171.512C85.0503 171.058 84.9868 170.64 84.9277 170.205C87.6063 170.205 89.1454 171.194 90.5074 172.066C91.8694 172.938 93.0362 173.691 95.2971 173.691C97.558 173.691 98.5659 172.901 99.6328 172.066C100.7 171.231 102.012 170.205 104.69 170.205C107.369 170.205 108.903 171.194 110.265 172.066C111.627 172.938 112.799 173.691 115.06 173.691C117.321 173.691 118.329 172.901 119.395 172.066C120.462 171.231 121.774 170.205 124.453 170.205C127.132 170.205 128.671 171.194 130.033 172.066C131.395 172.938 132.561 173.691 134.827 173.691C134.886 174.127 134.954 174.563 135.013 174.999Z" fill="#EBEBEB"/>
<path d="M138.854 48.6098C137.319 44.5238 133.773 41.8406 129.96 41.8406H122.187C121.609 41.8356 121.044 41.6608 120.564 41.338C120.084 41.0152 119.709 40.5585 119.486 40.0246C118.937 38.7197 118.018 37.6039 116.843 36.8142C115.667 36.0246 114.287 35.5956 112.871 35.58C111.502 35.5661 110.163 35.9897 109.051 36.7891C107.939 37.5885 107.111 38.722 106.688 40.0246C106.515 40.5576 106.177 41.0214 105.722 41.3482C105.267 41.6749 104.719 41.8475 104.159 41.8406H96.3911C92.573 41.8406 89.286 44.5374 88.151 48.6098L87.697 50.2306H139.453L138.854 48.6098Z" fill="#8687E7"/>
<path d="M139.131 51.8286H88.1919C87.7623 51.8236 87.3505 51.6559 87.0396 51.3594C86.7288 51.0628 86.5419 50.6594 86.5166 50.2305C86.5055 50.0245 86.5366 49.8183 86.6081 49.6247C86.6797 49.4312 86.7901 49.2543 86.9326 49.105C87.0751 48.9557 87.2466 48.8372 87.4366 48.7567C87.6267 48.6762 87.8312 48.6355 88.0375 48.637H138.976C139.405 48.6419 139.816 48.809 140.127 49.1046C140.438 49.4002 140.625 49.8025 140.652 50.2305C140.663 50.437 140.633 50.6437 140.561 50.8378C140.49 51.0319 140.38 51.2093 140.237 51.3591C140.095 51.5089 139.923 51.6278 139.733 51.7086C139.542 51.7894 139.337 51.8302 139.131 51.8286Z" fill="#BCBDFF"/>
<path opacity="0.2" d="M139.131 51.8286H88.1919C87.7623 51.8236 87.3505 51.6559 87.0396 51.3594C86.7288 51.0628 86.5419 50.6594 86.5166 50.2305C86.5055 50.0245 86.5366 49.8183 86.6081 49.6247C86.6797 49.4312 86.7901 49.2543 86.9326 49.105C87.0751 48.9557 87.2466 48.8372 87.4366 48.7567C87.6267 48.6762 87.8312 48.6355 88.0375 48.637H138.976C139.405 48.6419 139.816 48.809 140.127 49.1046C140.438 49.4002 140.625 49.8025 140.652 50.2305C140.663 50.437 140.633 50.6437 140.561 50.8378C140.49 51.0319 140.38 51.2093 140.237 51.3591C140.095 51.5089 139.923 51.6278 139.733 51.7086C139.542 51.7894 139.337 51.8302 139.131 51.8286Z" fill="black"/>
<path d="M184.858 186.244H181.53L181.198 178.54H184.526L184.858 186.244Z" fill="#FFC3BD"/>
<path d="M204.829 186.244H201.502L199.831 178.54H203.154L204.829 186.244Z" fill="#FFC3BD"/>
<path d="M201.265 185.859H205.002C205.068 185.858 205.132 185.881 205.183 185.922C205.234 185.963 205.27 186.021 205.283 186.086L205.941 189.046C205.956 189.117 205.955 189.192 205.937 189.263C205.92 189.334 205.887 189.4 205.84 189.457C205.793 189.514 205.735 189.559 205.668 189.59C205.602 189.621 205.529 189.637 205.456 189.636C204.153 189.613 203.517 189.536 201.874 189.536C200.861 189.536 198.777 189.64 197.384 189.64C195.99 189.64 195.804 188.278 196.376 188.138C198.941 187.575 199.903 186.803 200.725 186.063C200.874 185.931 201.066 185.859 201.265 185.859Z" fill="#263238"/>
<path d="M181.553 185.859H185.185C185.251 185.858 185.315 185.881 185.366 185.922C185.417 185.963 185.453 186.021 185.466 186.086L186.125 189.046C186.141 189.115 186.141 189.187 186.126 189.257C186.111 189.326 186.081 189.392 186.037 189.448C185.994 189.505 185.938 189.551 185.875 189.583C185.812 189.616 185.742 189.634 185.671 189.636C184.358 189.613 182.465 189.536 180.817 189.536C178.892 189.536 177.231 189.64 174.97 189.64C173.608 189.64 173.226 188.278 173.798 188.138C176.4 187.566 178.525 187.507 180.772 186.117C181.004 185.963 181.274 185.873 181.553 185.859Z" fill="#263238"/>
<path d="M188.072 64.8857C187.618 67.3191 187.355 70.3337 189.057 71.959C189.057 71.959 188.081 74.4288 183.559 74.4288C179.428 74.4288 181.498 71.959 181.498 71.959C184.222 71.3098 184.068 67.9547 183.596 66.057L188.072 64.8857Z" fill="#FFC3BD"/>
<path d="M180.2 72.2995C180.291 71.6957 181.353 70.992 182.56 70.7287C183.768 70.4653 188.408 69.8797 189.825 70.4653C191.241 71.051 189.579 72.7853 189.579 72.7853L180.2 72.2995Z" fill="#D7D7D7"/>
<path opacity="0.4" d="M180.2 72.2995C180.291 71.6957 181.353 70.992 182.56 70.7287C183.768 70.4653 188.408 69.8797 189.825 70.4653C191.241 71.051 189.579 72.7853 189.579 72.7853L180.2 72.2995Z" fill="white"/>
<path opacity="0.2" d="M181.198 178.545L181.371 182.513H184.699L184.526 178.545H181.198Z" fill="black"/>
<path opacity="0.2" d="M203.159 178.545H199.831L200.693 182.513H204.021L203.159 178.545Z" fill="black"/>
<path d="M195.949 74.9554L191.94 77.634C191.94 77.634 197.697 87.8717 197.216 89.5106C196.557 91.7443 195.64 96.6248 194.392 99.1036C194.555 99.6394 195.386 100.861 195.849 101.069C199.027 98.6542 202.237 91.0815 202.119 88.9613C201.842 84.1534 195.949 74.9554 195.949 74.9554Z" fill="#FFC3BD"/>
<path d="M194.392 99.1127L191.214 98.8676L192.88 102.368C192.88 102.368 195.654 102.49 196.117 100.37L194.392 99.1127Z" fill="#B55B52"/>
<path d="M210.1 116.183L209.832 116.687L208.035 120.088L144.211 86.3417L146.272 82.4373L210.1 116.183Z" fill="#D7D7D7"/>
<path d="M214.227 108.388L212.911 110.876L212.166 112.283L148.338 78.5375L150.399 74.6331L214.227 108.388Z" fill="#D7D7D7"/>
<path d="M148.359 78.526L146.293 82.4255L210.095 116.221L212.161 112.321L148.359 78.526Z" fill="#D7D7D7"/>
<path opacity="0.2" d="M148.359 78.526L146.293 82.4255L210.095 116.221L212.161 112.321L148.359 78.526Z" fill="black"/>
<path d="M141.46 75.1506L139.603 78.6646L144.211 86.3417L150.399 74.6376L141.46 75.1506Z" fill="#D7D7D7"/>
<path opacity="0.8" d="M141.46 75.1506L139.603 78.6646L144.211 86.3417L150.399 74.6376L141.46 75.1506Z" fill="white"/>
<path d="M137.628 75.3731L139.603 78.6646L141.46 75.1506L137.628 75.3731Z" fill="#D7D7D7"/>
<path d="M188.658 100.461L190.319 103.557L192.894 102.368L191.227 98.8676L188.658 100.461Z" fill="#B55B52"/>
<path d="M194.996 72.7126C198.142 73.1666 201.747 84.0626 201.747 84.0626L195.136 87.7945C195.136 87.7945 192.226 82.628 190.796 78.769C189.289 74.7329 191.622 72.2223 194.996 72.7126Z" fill="#8687E7"/>
<path opacity="0.2" d="M193.166 76.4491C191.736 75.1415 192.612 80.7394 193.293 84.3214C193.643 85.0206 193.974 85.6562 194.256 86.1874C195.849 83.3726 195.136 78.2514 193.166 76.4491Z" fill="black"/>
<path d="M176.363 72.8851C176.363 72.8851 172.436 82.9276 176.164 101.632H193.974C194.097 98.9084 192.381 85.579 195.014 72.7126C193.047 72.3328 191.057 72.0811 189.057 71.959C186.54 71.8136 184.016 71.8136 181.498 71.959C179.765 72.1323 178.048 72.4419 176.363 72.8851Z" fill="#8687E7"/>
<path d="M179.101 77.5522L174.615 75.7771C174.615 75.7771 169.449 86.3235 167.805 86.8547C165.595 87.5811 161.055 89.5787 158.303 89.9691C157.958 90.4231 157.423 91.7851 157.509 92.2845C161.3 93.524 169.367 91.8805 171.038 90.582C174.87 87.622 179.101 77.5522 179.101 77.5522Z" fill="#FFC3BD"/>
<path opacity="0.2" d="M179.605 76.3537C178.865 74.6467 177.448 73.9339 175.973 74.1836C175.401 76.2765 174.434 80.8756 174.611 87.8036L175.669 88.3121C175.669 88.3121 180.872 79.2729 179.605 76.3537Z" fill="black"/>
<path d="M180.313 75.1597C181.43 78.1379 175.773 86.9001 175.773 86.9001L169.118 83.2681C170.118 80.5428 171.407 77.9325 172.963 75.482C175.301 71.9907 179.083 71.8954 180.313 75.1597Z" fill="#8687E7"/>
<path d="M158.467 89.9601L154.508 90.8L156.514 94.4638C157.621 93.9133 158.626 93.1796 159.488 92.2936L158.467 89.9601Z" fill="#FFC3BD"/>
<path d="M152.637 91.6308L154.217 93.8191L156.515 94.4819L154.508 90.8181L152.637 91.6308Z" fill="#FFC3BD"/>
<path d="M180.527 61.3854C180.527 61.6532 180.359 61.8394 180.182 61.8394C180.004 61.8394 179.877 61.6033 179.896 61.3354C179.914 61.0675 180.064 60.8814 180.241 60.8814C180.418 60.8814 180.545 61.1175 180.527 61.3854Z" fill="#263238"/>
<path d="M180.763 61.408C180.396 62.2079 179.921 62.9535 179.351 63.6235C179.526 63.7654 179.73 63.8669 179.949 63.9211C180.168 63.9752 180.396 63.9806 180.617 63.9368L180.763 61.408Z" fill="#ED847E"/>
<path d="M180.186 60.4591C180.162 60.4541 180.139 60.4448 180.118 60.4319C180.1 60.4209 180.085 60.4064 180.073 60.3893C180.061 60.3722 180.053 60.353 180.049 60.3326C180.045 60.3123 180.045 60.2913 180.049 60.2709C180.053 60.2505 180.061 60.2311 180.073 60.214C180.204 60.0014 180.384 59.823 180.598 59.6936C180.812 59.5642 181.054 59.4873 181.303 59.4694C181.344 59.4716 181.384 59.489 181.413 59.5184C181.442 59.5477 181.46 59.5869 181.462 59.6283C181.462 59.6705 181.445 59.7109 181.415 59.7407C181.386 59.7705 181.345 59.7872 181.303 59.7872C181.109 59.8053 180.923 59.8685 180.758 59.9718C180.593 60.0751 180.455 60.2156 180.354 60.382C180.338 60.4107 180.313 60.4337 180.282 60.4475C180.252 60.4613 180.219 60.4654 180.186 60.4591Z" fill="#263238"/>
<path d="M189.552 61.1538C189.162 64.4317 189.098 66.3657 187.341 67.9638C184.694 70.3609 180.722 68.6221 180.122 65.2897C179.587 62.2933 180.318 57.4401 183.614 56.3141C184.339 56.0632 185.116 56.0018 185.872 56.1357C186.628 56.2695 187.337 56.5943 187.931 57.0792C188.526 57.564 188.988 58.1928 189.271 58.9059C189.555 59.619 189.651 60.3928 189.552 61.1538Z" fill="#FFC3BD"/>
<path d="M182.947 61.7939C181.798 62.0209 179.964 59.4694 181.462 57.3039C180.704 56.927 178.229 58.4162 177.299 57.0269C176.368 55.6377 178.951 54.8977 178.456 53.7218C180.209 54.0805 177.321 56.2687 178.988 56.0554C180.654 55.842 182.574 52.7639 184.436 54.026C187.727 56.237 192.213 52.5505 190.383 57.1677C192.626 56.7137 194.16 59.365 192.022 61.2037C187.759 64.8584 190.383 65.3397 187.682 65.5258C186.329 65.6257 183.183 64.014 182.947 61.7939Z" fill="#263238"/>
<path d="M184.649 62.652C184.492 62.9797 184.271 63.2726 183.999 63.5136C183.726 63.7545 183.409 63.9385 183.065 64.0548C182.157 64.3681 181.634 63.5554 181.848 62.6611C182.039 61.8529 182.756 60.7179 183.696 60.7996C183.902 60.8198 184.1 60.8913 184.271 61.0078C184.443 61.1242 184.582 61.2817 184.677 61.466C184.772 61.6503 184.819 61.8554 184.814 62.0626C184.809 62.2698 184.752 62.4724 184.649 62.652Z" fill="#FFC3BD"/>
<path d="M182.474 101.632C182.474 101.632 186.252 127.056 188.322 136.59C190.592 147.032 199.141 181.759 199.141 181.759H205.233C205.233 181.759 199.599 147.863 198.301 137.535C196.898 126.33 193.956 101.646 193.956 101.646L182.474 101.632Z" fill="#D7D7D7"/>
<path opacity="0.2" d="M182.474 101.632C182.474 101.632 186.252 127.056 188.322 136.59C190.592 147.032 199.141 181.759 199.141 181.759H205.233C205.233 181.759 199.599 147.863 198.301 137.535C196.898 126.33 193.956 101.646 193.956 101.646L182.474 101.632Z" fill="white"/>
<path opacity="0.2" d="M186.96 110.522C186.678 110.122 186.424 109.986 186.188 110.068H186.138C186.084 110.091 186.034 110.122 185.988 110.159C185.94 110.198 185.896 110.242 185.857 110.29L185.784 110.381L185.689 110.531C185.61 110.663 185.541 110.801 185.484 110.944C185.448 111.03 185.412 111.121 185.38 111.212C185.348 111.303 185.298 111.443 185.262 111.57C185.226 111.698 185.157 111.916 185.107 112.102C185.107 112.152 185.085 112.197 185.071 112.247C185.058 112.297 185.021 112.456 184.999 112.56C184.976 112.665 184.958 112.742 184.94 112.833C184.899 113.01 184.862 113.196 184.826 113.386C184.79 113.577 184.749 113.8 184.713 114.013C184.713 114.086 184.69 114.158 184.676 114.235C184.631 114.508 184.59 114.785 184.549 115.071C185.557 121.4 186.755 128.655 187.727 133.717C187.772 133.553 187.822 133.381 187.863 133.195C188.062 132.35 188.213 131.495 188.317 130.634C189.175 124.11 188.78 113.123 186.96 110.522Z" fill="black"/>
<path d="M176.164 101.632C176.164 101.632 175.71 126.502 176.068 136.649C176.445 147.2 180.132 181.745 180.132 181.745H185.766C185.766 181.745 185.97 147.813 186.22 137.453C186.492 126.157 187.854 101.632 187.854 101.632H176.164Z" fill="#D7D7D7"/>
<path opacity="0.2" d="M176.164 101.632C176.164 101.632 175.71 126.502 176.068 136.649C176.445 147.2 180.132 181.745 180.132 181.745H185.766C185.766 181.745 185.97 147.813 186.22 137.453C186.492 126.157 187.854 101.632 187.854 101.632H176.164Z" fill="white"/>
<path d="M186.138 180.02C186.161 180.02 186.138 181.859 186.138 181.859H179.641L179.369 179.793L186.138 180.02Z" fill="#263238"/>
<path d="M205.233 180.156C205.26 180.156 205.537 181.859 205.537 181.859H198.841L198.251 179.907L205.233 180.156Z" fill="#263238"/>
<path d="M200.167 186.44C199.94 186.458 199.715 186.399 199.527 186.272C199.465 186.222 199.418 186.158 199.39 186.084C199.361 186.011 199.352 185.932 199.363 185.854C199.364 185.809 199.376 185.764 199.399 185.725C199.422 185.686 199.455 185.654 199.495 185.632C199.862 185.445 200.938 186.086 201.061 186.176C201.074 186.186 201.083 186.198 201.089 186.213C201.094 186.227 201.096 186.243 201.093 186.258C201.09 186.273 201.084 186.288 201.073 186.299C201.063 186.31 201.049 186.318 201.034 186.322C200.75 186.393 200.459 186.432 200.167 186.44ZM199.672 185.754C199.637 185.746 199.602 185.746 199.567 185.754C199.552 185.763 199.539 185.777 199.53 185.793C199.521 185.809 199.517 185.827 199.517 185.845C199.51 185.898 199.517 185.952 199.536 186.002C199.555 186.052 199.586 186.096 199.626 186.131C199.997 186.303 200.42 186.326 200.807 186.194C200.46 185.976 200.075 185.826 199.672 185.754Z" fill="#D7D7D7"/>
<path d="M201.016 186.326C201.004 186.33 200.991 186.33 200.979 186.326C200.634 186.14 199.971 185.418 200.04 185.041C200.051 184.984 200.082 184.932 200.128 184.894C200.173 184.857 200.23 184.837 200.289 184.837C200.349 184.828 200.41 184.832 200.468 184.85C200.526 184.867 200.58 184.897 200.625 184.937C201.011 185.25 201.079 186.213 201.079 186.253C201.079 186.268 201.075 186.281 201.069 186.294C201.063 186.306 201.054 186.317 201.043 186.326C201.034 186.328 201.025 186.328 201.016 186.326ZM200.344 184.964H200.33C200.226 184.964 200.217 185.023 200.212 185.046C200.171 185.264 200.593 185.813 200.938 186.072C200.915 185.693 200.777 185.331 200.543 185.032C200.514 185.007 200.48 184.989 200.443 184.979C200.407 184.969 200.368 184.967 200.33 184.973L200.344 184.964Z" fill="#D7D7D7"/>
<path d="M180.168 186.44C179.883 186.466 179.598 186.394 179.36 186.235C179.308 186.187 179.267 186.128 179.242 186.062C179.217 185.996 179.207 185.924 179.215 185.854C179.215 185.811 179.227 185.769 179.249 185.732C179.271 185.695 179.303 185.665 179.342 185.645C179.746 185.418 181.085 186.099 181.235 186.176C181.25 186.183 181.262 186.195 181.27 186.21C181.277 186.225 181.279 186.242 181.276 186.258C181.274 186.274 181.266 186.289 181.255 186.301C181.243 186.312 181.228 186.32 181.212 186.322C180.869 186.395 180.519 186.434 180.168 186.44ZM179.564 185.754C179.514 185.752 179.465 185.761 179.419 185.781C179.404 185.79 179.391 185.803 179.382 185.818C179.374 185.833 179.369 185.85 179.369 185.868C179.362 185.914 179.368 185.961 179.384 186.005C179.401 186.048 179.429 186.087 179.464 186.117C179.669 186.299 180.218 186.331 180.953 186.208C180.519 185.98 180.049 185.826 179.564 185.754Z" fill="#D7D7D7"/>
<path d="M181.198 186.326H181.167C180.763 186.144 179.968 185.418 180.032 185.05C180.032 184.964 180.109 184.851 180.322 184.832C180.403 184.82 180.485 184.826 180.564 184.849C180.642 184.871 180.714 184.911 180.776 184.964C181.198 185.314 181.285 186.208 181.289 186.249C181.291 186.262 181.289 186.276 181.284 186.288C181.278 186.3 181.269 186.31 181.257 186.317C181.24 186.327 181.219 186.331 181.198 186.326ZM180.386 184.964H180.354C180.213 184.964 180.204 185.032 180.2 185.055C180.163 185.277 180.704 185.845 181.108 186.09C181.068 185.709 180.91 185.349 180.654 185.064C180.576 185.006 180.482 184.974 180.386 184.973V184.964Z" fill="#D7D7D7"/>
<path d="M20.4 245.67L15.93 260H14.19L10.56 249.07C10.5267 248.963 10.4933 248.85 10.46 248.73C10.4333 248.61 10.4033 248.483 10.37 248.35C10.3367 248.483 10.3033 248.61 10.27 248.73C10.2367 248.85 10.2033 248.963 10.17 249.07L6.52 260H4.78L0.31 245.67H1.92C2.09333 245.67 2.23667 245.713 2.35 245.8C2.47 245.887 2.54667 245.997 2.58 246.13L5.54 256.09C5.58667 256.27 5.63 256.463 5.67 256.67C5.71667 256.877 5.76 257.097 5.8 257.33C5.84667 257.097 5.89333 256.877 5.94 256.67C5.99333 256.457 6.05 256.263 6.11 256.09L9.48 246.13C9.52 246.017 9.59667 245.913 9.71 245.82C9.83 245.72 9.97333 245.67 10.14 245.67H10.7C10.8733 245.67 11.0133 245.713 11.12 245.8C11.2267 245.887 11.3067 245.997 11.36 246.13L14.72 256.09C14.78 256.263 14.8333 256.45 14.88 256.65C14.9333 256.85 14.9833 257.06 15.03 257.28C15.0633 257.06 15.1 256.85 15.14 256.65C15.18 256.45 15.2233 256.263 15.27 256.09L18.24 246.13C18.2733 246.01 18.3467 245.903 18.46 245.81C18.58 245.717 18.7233 245.67 18.89 245.67H20.4ZM23.8055 251.22C24.2388 250.76 24.7188 250.393 25.2455 250.12C25.7721 249.847 26.3788 249.71 27.0655 249.71C27.6188 249.71 28.1055 249.803 28.5255 249.99C28.9521 250.17 29.3055 250.43 29.5855 250.77C29.8721 251.103 30.0888 251.507 30.2355 251.98C30.3821 252.453 30.4555 252.977 30.4555 253.55V260H28.6655V253.55C28.6655 252.783 28.4888 252.19 28.1355 251.77C27.7888 251.343 27.2588 251.13 26.5455 251.13C26.0188 251.13 25.5255 251.257 25.0655 251.51C24.6121 251.763 24.1921 252.107 23.8055 252.54V260H22.0155V245.27H23.8055V251.22ZM38.6578 255.44C37.8378 255.467 37.1378 255.533 36.5578 255.64C35.9845 255.74 35.5145 255.873 35.1478 256.04C34.7878 256.207 34.5245 256.403 34.3578 256.63C34.1978 256.857 34.1178 257.11 34.1178 257.39C34.1178 257.657 34.1611 257.887 34.2478 258.08C34.3345 258.273 34.4511 258.433 34.5978 258.56C34.7511 258.68 34.9278 258.77 35.1278 258.83C35.3345 258.883 35.5545 258.91 35.7878 258.91C36.1011 258.91 36.3878 258.88 36.6478 258.82C36.9078 258.753 37.1511 258.66 37.3778 258.54C37.6111 258.42 37.8311 258.277 38.0378 258.11C38.2511 257.943 38.4578 257.753 38.6578 257.54V255.44ZM32.9078 251.3C33.4678 250.76 34.0711 250.357 34.7178 250.09C35.3645 249.823 36.0811 249.69 36.8678 249.69C37.4345 249.69 37.9378 249.783 38.3778 249.97C38.8178 250.157 39.1878 250.417 39.4878 250.75C39.7878 251.083 40.0145 251.487 40.1678 251.96C40.3211 252.433 40.3978 252.953 40.3978 253.52V260H39.6078C39.4345 260 39.3011 259.973 39.2078 259.92C39.1145 259.86 39.0411 259.747 38.9878 259.58L38.7878 258.62C38.5211 258.867 38.2611 259.087 38.0078 259.28C37.7545 259.467 37.4878 259.627 37.2078 259.76C36.9278 259.887 36.6278 259.983 36.3078 260.05C35.9945 260.123 35.6445 260.16 35.2578 260.16C34.8645 260.16 34.4945 260.107 34.1478 260C33.8011 259.887 33.4978 259.72 33.2378 259.5C32.9845 259.28 32.7811 259.003 32.6278 258.67C32.4811 258.33 32.4078 257.93 32.4078 257.47C32.4078 257.07 32.5178 256.687 32.7378 256.32C32.9578 255.947 33.3145 255.617 33.8078 255.33C34.3011 255.043 34.9445 254.81 35.7378 254.63C36.5311 254.443 37.5045 254.337 38.6578 254.31V253.52C38.6578 252.733 38.4878 252.14 38.1478 251.74C37.8078 251.333 37.3111 251.13 36.6578 251.13C36.2178 251.13 35.8478 251.187 35.5478 251.3C35.2545 251.407 34.9978 251.53 34.7778 251.67C34.5645 251.803 34.3778 251.927 34.2178 252.04C34.0645 252.147 33.9111 252.2 33.7578 252.2C33.6378 252.2 33.5345 252.17 33.4478 252.11C33.3611 252.043 33.2878 251.963 33.2278 251.87L32.9078 251.3ZM46.0825 260.16C45.2825 260.16 44.6658 259.937 44.2325 259.49C43.8058 259.043 43.5925 258.4 43.5925 257.56V251.36H42.3725C42.2658 251.36 42.1758 251.33 42.1025 251.27C42.0292 251.203 41.9925 251.103 41.9925 250.97V250.26L43.6525 250.05L44.0625 246.92C44.0825 246.82 44.1258 246.74 44.1925 246.68C44.2658 246.613 44.3592 246.58 44.4725 246.58H45.3725V250.07H48.3025V251.36H45.3725V257.44C45.3725 257.867 45.4758 258.183 45.6825 258.39C45.8892 258.597 46.1558 258.7 46.4825 258.7C46.6692 258.7 46.8292 258.677 46.9625 258.63C47.1025 258.577 47.2225 258.52 47.3225 258.46C47.4225 258.4 47.5058 258.347 47.5725 258.3C47.6458 258.247 47.7092 258.22 47.7625 258.22C47.8558 258.22 47.9392 258.277 48.0125 258.39L48.5325 259.24C48.2258 259.527 47.8558 259.753 47.4225 259.92C46.9892 260.08 46.5425 260.16 46.0825 260.16ZM61.8577 252.28C61.5243 251.833 61.1643 251.523 60.7777 251.35C60.391 251.17 59.9577 251.08 59.4777 251.08C58.5377 251.08 57.8143 251.417 57.3077 252.09C56.801 252.763 56.5477 253.723 56.5477 254.97C56.5477 255.63 56.6043 256.197 56.7177 256.67C56.831 257.137 56.9977 257.523 57.2177 257.83C57.4377 258.13 57.7077 258.35 58.0277 258.49C58.3477 258.63 58.711 258.7 59.1177 258.7C59.7043 258.7 60.2143 258.567 60.6477 258.3C61.0877 258.033 61.491 257.657 61.8577 257.17V252.28ZM63.6377 245.27V260H62.5777C62.3243 260 62.1643 259.877 62.0977 259.63L61.9377 258.4C61.5043 258.92 61.011 259.34 60.4577 259.66C59.9043 259.98 59.2643 260.14 58.5377 260.14C57.9577 260.14 57.431 260.03 56.9577 259.81C56.4843 259.583 56.081 259.253 55.7477 258.82C55.4143 258.387 55.1577 257.847 54.9777 257.2C54.7977 256.553 54.7077 255.81 54.7077 254.97C54.7077 254.223 54.8077 253.53 55.0077 252.89C55.2077 252.243 55.4943 251.683 55.8677 251.21C56.241 250.737 56.6977 250.367 57.2377 250.1C57.7843 249.827 58.3977 249.69 59.0777 249.69C59.6977 249.69 60.2277 249.797 60.6677 250.01C61.1143 250.217 61.511 250.507 61.8577 250.88V245.27H63.6377ZM70.7191 249.71C71.4591 249.71 72.1257 249.833 72.7191 250.08C73.3124 250.327 73.8191 250.677 74.2391 251.13C74.6591 251.583 74.9791 252.133 75.1991 252.78C75.4257 253.42 75.5391 254.137 75.5391 254.93C75.5391 255.73 75.4257 256.45 75.1991 257.09C74.9791 257.73 74.6591 258.277 74.2391 258.73C73.8191 259.183 73.3124 259.533 72.7191 259.78C72.1257 260.02 71.4591 260.14 70.7191 260.14C69.9724 260.14 69.2991 260.02 68.6991 259.78C68.1057 259.533 67.5991 259.183 67.1791 258.73C66.7591 258.277 66.4357 257.73 66.2091 257.09C65.9891 256.45 65.8791 255.73 65.8791 254.93C65.8791 254.137 65.9891 253.42 66.2091 252.78C66.4357 252.133 66.7591 251.583 67.1791 251.13C67.5991 250.677 68.1057 250.327 68.6991 250.08C69.2991 249.833 69.9724 249.71 70.7191 249.71ZM70.7191 258.75C71.7191 258.75 72.4657 258.417 72.9591 257.75C73.4524 257.077 73.6991 256.14 73.6991 254.94C73.6991 253.733 73.4524 252.793 72.9591 252.12C72.4657 251.447 71.7191 251.11 70.7191 251.11C70.2124 251.11 69.7691 251.197 69.3891 251.37C69.0157 251.543 68.7024 251.793 68.4491 252.12C68.2024 252.447 68.0157 252.85 67.8891 253.33C67.7691 253.803 67.7091 254.34 67.7091 254.94C67.7091 256.14 67.9557 257.077 68.4491 257.75C68.9491 258.417 69.7057 258.75 70.7191 258.75ZM91.1461 249.87L85.4961 262.99C85.4361 263.123 85.3594 263.23 85.2661 263.31C85.1794 263.39 85.0428 263.43 84.8561 263.43H83.5361L85.3861 259.41L81.2061 249.87H82.7461C82.8994 249.87 83.0194 249.91 83.1061 249.99C83.1994 250.063 83.2628 250.147 83.2961 250.24L86.0061 256.62C86.1128 256.9 86.2028 257.193 86.2761 257.5C86.3694 257.187 86.4694 256.89 86.5761 256.61L89.2061 250.24C89.2461 250.133 89.3128 250.047 89.4061 249.98C89.5061 249.907 89.6161 249.87 89.7361 249.87H91.1461ZM96.7152 249.71C97.4552 249.71 98.1218 249.833 98.7152 250.08C99.3085 250.327 99.8152 250.677 100.235 251.13C100.655 251.583 100.975 252.133 101.195 252.78C101.422 253.42 101.535 254.137 101.535 254.93C101.535 255.73 101.422 256.45 101.195 257.09C100.975 257.73 100.655 258.277 100.235 258.73C99.8152 259.183 99.3085 259.533 98.7152 259.78C98.1218 260.02 97.4552 260.14 96.7152 260.14C95.9685 260.14 95.2952 260.02 94.6952 259.78C94.1018 259.533 93.5952 259.183 93.1752 258.73C92.7552 258.277 92.4318 257.73 92.2052 257.09C91.9852 256.45 91.8752 255.73 91.8752 254.93C91.8752 254.137 91.9852 253.42 92.2052 252.78C92.4318 252.133 92.7552 251.583 93.1752 251.13C93.5952 250.677 94.1018 250.327 94.6952 250.08C95.2952 249.833 95.9685 249.71 96.7152 249.71ZM96.7152 258.75C97.7152 258.75 98.4618 258.417 98.9552 257.75C99.4485 257.077 99.6952 256.14 99.6952 254.94C99.6952 253.733 99.4485 252.793 98.9552 252.12C98.4618 251.447 97.7152 251.11 96.7152 251.11C96.2085 251.11 95.7652 251.197 95.3852 251.37C95.0118 251.543 94.6985 251.793 94.4452 252.12C94.1985 252.447 94.0118 252.85 93.8852 253.33C93.7652 253.803 93.7052 254.34 93.7052 254.94C93.7052 256.14 93.9518 257.077 94.4452 257.75C94.9452 258.417 95.7018 258.75 96.7152 258.75ZM112.123 249.87V260H111.063C110.809 260 110.649 259.877 110.583 259.63L110.443 258.54C110.003 259.027 109.509 259.42 108.963 259.72C108.416 260.013 107.789 260.16 107.083 260.16C106.529 260.16 106.039 260.07 105.613 259.89C105.193 259.703 104.839 259.443 104.553 259.11C104.266 258.777 104.049 258.373 103.903 257.9C103.763 257.427 103.693 256.903 103.693 256.33V249.87H105.473V256.33C105.473 257.097 105.646 257.69 105.993 258.11C106.346 258.53 106.883 258.74 107.603 258.74C108.129 258.74 108.619 258.617 109.073 258.37C109.533 258.117 109.956 257.77 110.343 257.33V249.87H112.123ZM133.622 249.87L130.342 260H128.932C128.759 260 128.639 259.887 128.572 259.66L126.332 252.79C126.279 252.637 126.236 252.483 126.202 252.33C126.169 252.17 126.136 252.013 126.102 251.86C126.069 252.013 126.036 252.17 126.002 252.33C125.969 252.483 125.926 252.64 125.872 252.8L123.592 259.66C123.532 259.887 123.399 260 123.192 260H121.852L118.572 249.87H119.972C120.112 249.87 120.229 249.907 120.322 249.98C120.422 250.053 120.489 250.14 120.522 250.24L122.462 256.76C122.576 257.24 122.666 257.693 122.732 258.12C122.792 257.9 122.852 257.677 122.912 257.45C122.979 257.223 123.049 256.993 123.122 256.76L125.262 250.2C125.296 250.1 125.352 250.017 125.432 249.95C125.519 249.883 125.622 249.85 125.742 249.85H126.522C126.656 249.85 126.766 249.883 126.852 249.95C126.939 250.017 126.999 250.1 127.032 250.2L129.122 256.76C129.196 256.993 129.262 257.223 129.322 257.45C129.382 257.677 129.439 257.9 129.492 258.12C129.526 257.9 129.566 257.68 129.612 257.46C129.666 257.233 129.722 257 129.782 256.76L131.762 250.24C131.796 250.133 131.859 250.047 131.952 249.98C132.046 249.907 132.156 249.87 132.282 249.87H133.622ZM140.728 255.44C139.908 255.467 139.208 255.533 138.628 255.64C138.055 255.74 137.585 255.873 137.218 256.04C136.858 256.207 136.595 256.403 136.428 256.63C136.268 256.857 136.188 257.11 136.188 257.39C136.188 257.657 136.231 257.887 136.318 258.08C136.405 258.273 136.521 258.433 136.668 258.56C136.821 258.68 136.998 258.77 137.198 258.83C137.405 258.883 137.625 258.91 137.858 258.91C138.171 258.91 138.458 258.88 138.718 258.82C138.978 258.753 139.221 258.66 139.448 258.54C139.681 258.42 139.901 258.277 140.108 258.11C140.321 257.943 140.528 257.753 140.728 257.54V255.44ZM134.978 251.3C135.538 250.76 136.141 250.357 136.788 250.09C137.435 249.823 138.151 249.69 138.938 249.69C139.505 249.69 140.008 249.783 140.448 249.97C140.888 250.157 141.258 250.417 141.558 250.75C141.858 251.083 142.085 251.487 142.238 251.96C142.391 252.433 142.468 252.953 142.468 253.52V260H141.678C141.505 260 141.371 259.973 141.278 259.92C141.185 259.86 141.111 259.747 141.058 259.58L140.858 258.62C140.591 258.867 140.331 259.087 140.078 259.28C139.825 259.467 139.558 259.627 139.278 259.76C138.998 259.887 138.698 259.983 138.378 260.05C138.065 260.123 137.715 260.16 137.328 260.16C136.935 260.16 136.565 260.107 136.218 260C135.871 259.887 135.568 259.72 135.308 259.5C135.055 259.28 134.851 259.003 134.698 258.67C134.551 258.33 134.478 257.93 134.478 257.47C134.478 257.07 134.588 256.687 134.808 256.32C135.028 255.947 135.385 255.617 135.878 255.33C136.371 255.043 137.015 254.81 137.808 254.63C138.601 254.443 139.575 254.337 140.728 254.31V253.52C140.728 252.733 140.558 252.14 140.218 251.74C139.878 251.333 139.381 251.13 138.728 251.13C138.288 251.13 137.918 251.187 137.618 251.3C137.325 251.407 137.068 251.53 136.848 251.67C136.635 251.803 136.448 251.927 136.288 252.04C136.135 252.147 135.981 252.2 135.828 252.2C135.708 252.2 135.605 252.17 135.518 252.11C135.431 252.043 135.358 251.963 135.298 251.87L134.978 251.3ZM146.86 251.34C147.08 251.093 147.313 250.87 147.56 250.67C147.806 250.47 148.066 250.3 148.34 250.16C148.62 250.013 148.913 249.903 149.22 249.83C149.533 249.75 149.87 249.71 150.23 249.71C150.783 249.71 151.27 249.803 151.69 249.99C152.116 250.17 152.47 250.43 152.75 250.77C153.036 251.103 153.253 251.507 153.4 251.98C153.546 252.453 153.62 252.977 153.62 253.55V260H151.83V253.55C151.83 252.783 151.653 252.19 151.3 251.77C150.953 251.343 150.423 251.13 149.71 251.13C149.183 251.13 148.69 251.257 148.23 251.51C147.776 251.763 147.356 252.107 146.97 252.54V260H145.18V249.87H146.25C146.503 249.87 146.66 249.993 146.72 250.24L146.86 251.34ZM159.305 260.16C158.505 260.16 157.888 259.937 157.455 259.49C157.028 259.043 156.815 258.4 156.815 257.56V251.36H155.595C155.488 251.36 155.398 251.33 155.325 251.27C155.252 251.203 155.215 251.103 155.215 250.97V250.26L156.875 250.05L157.285 246.92C157.305 246.82 157.348 246.74 157.415 246.68C157.488 246.613 157.582 246.58 157.695 246.58H158.595V250.07H161.525V251.36H158.595V257.44C158.595 257.867 158.698 258.183 158.905 258.39C159.112 258.597 159.378 258.7 159.705 258.7C159.892 258.7 160.052 258.677 160.185 258.63C160.325 258.577 160.445 258.52 160.545 258.46C160.645 258.4 160.728 258.347 160.795 258.3C160.868 258.247 160.932 258.22 160.985 258.22C161.078 258.22 161.162 258.277 161.235 258.39L161.755 259.24C161.448 259.527 161.078 259.753 160.645 259.92C160.212 260.08 159.765 260.16 159.305 260.16ZM171.59 260.16C170.79 260.16 170.174 259.937 169.74 259.49C169.314 259.043 169.1 258.4 169.1 257.56V251.36H167.88C167.774 251.36 167.684 251.33 167.61 251.27C167.537 251.203 167.5 251.103 167.5 250.97V250.26L169.16 250.05L169.57 246.92C169.59 246.82 169.634 246.74 169.7 246.68C169.774 246.613 169.867 246.58 169.98 246.58H170.88V250.07H173.81V251.36H170.88V257.44C170.88 257.867 170.984 258.183 171.19 258.39C171.397 258.597 171.664 258.7 171.99 258.7C172.177 258.7 172.337 258.677 172.47 258.63C172.61 258.577 172.73 258.52 172.83 258.46C172.93 258.4 173.014 258.347 173.08 258.3C173.154 258.247 173.217 258.22 173.27 258.22C173.364 258.22 173.447 258.277 173.52 258.39L174.04 259.24C173.734 259.527 173.364 259.753 172.93 259.92C172.497 260.08 172.05 260.16 171.59 260.16ZM179.86 249.71C180.6 249.71 181.266 249.833 181.86 250.08C182.453 250.327 182.96 250.677 183.38 251.13C183.8 251.583 184.12 252.133 184.34 252.78C184.566 253.42 184.68 254.137 184.68 254.93C184.68 255.73 184.566 256.45 184.34 257.09C184.12 257.73 183.8 258.277 183.38 258.73C182.96 259.183 182.453 259.533 181.86 259.78C181.266 260.02 180.6 260.14 179.86 260.14C179.113 260.14 178.44 260.02 177.84 259.78C177.246 259.533 176.74 259.183 176.32 258.73C175.9 258.277 175.576 257.73 175.35 257.09C175.13 256.45 175.02 255.73 175.02 254.93C175.02 254.137 175.13 253.42 175.35 252.78C175.576 252.133 175.9 251.583 176.32 251.13C176.74 250.677 177.246 250.327 177.84 250.08C178.44 249.833 179.113 249.71 179.86 249.71ZM179.86 258.75C180.86 258.75 181.606 258.417 182.1 257.75C182.593 257.077 182.84 256.14 182.84 254.94C182.84 253.733 182.593 252.793 182.1 252.12C181.606 251.447 180.86 251.11 179.86 251.11C179.353 251.11 178.91 251.197 178.53 251.37C178.156 251.543 177.843 251.793 177.59 252.12C177.343 252.447 177.156 252.85 177.03 253.33C176.91 253.803 176.85 254.34 176.85 254.94C176.85 256.14 177.096 257.077 177.59 257.75C178.09 258.417 178.846 258.75 179.86 258.75ZM198.655 252.28C198.321 251.833 197.961 251.523 197.575 251.35C197.188 251.17 196.755 251.08 196.275 251.08C195.335 251.08 194.611 251.417 194.105 252.09C193.598 252.763 193.345 253.723 193.345 254.97C193.345 255.63 193.401 256.197 193.515 256.67C193.628 257.137 193.795 257.523 194.015 257.83C194.235 258.13 194.505 258.35 194.825 258.49C195.145 258.63 195.508 258.7 195.915 258.7C196.501 258.7 197.011 258.567 197.445 258.3C197.885 258.033 198.288 257.657 198.655 257.17V252.28ZM200.435 245.27V260H199.375C199.121 260 198.961 259.877 198.895 259.63L198.735 258.4C198.301 258.92 197.808 259.34 197.255 259.66C196.701 259.98 196.061 260.14 195.335 260.14C194.755 260.14 194.228 260.03 193.755 259.81C193.281 259.583 192.878 259.253 192.545 258.82C192.211 258.387 191.955 257.847 191.775 257.2C191.595 256.553 191.505 255.81 191.505 254.97C191.505 254.223 191.605 253.53 191.805 252.89C192.005 252.243 192.291 251.683 192.665 251.21C193.038 250.737 193.495 250.367 194.035 250.1C194.581 249.827 195.195 249.69 195.875 249.69C196.495 249.69 197.025 249.797 197.465 250.01C197.911 250.217 198.308 250.507 198.655 250.88V245.27H200.435ZM207.516 249.71C208.256 249.71 208.923 249.833 209.516 250.08C210.109 250.327 210.616 250.677 211.036 251.13C211.456 251.583 211.776 252.133 211.996 252.78C212.223 253.42 212.336 254.137 212.336 254.93C212.336 255.73 212.223 256.45 211.996 257.09C211.776 257.73 211.456 258.277 211.036 258.73C210.616 259.183 210.109 259.533 209.516 259.78C208.923 260.02 208.256 260.14 207.516 260.14C206.769 260.14 206.096 260.02 205.496 259.78C204.903 259.533 204.396 259.183 203.976 258.73C203.556 258.277 203.233 257.73 203.006 257.09C202.786 256.45 202.676 255.73 202.676 254.93C202.676 254.137 202.786 253.42 203.006 252.78C203.233 252.133 203.556 251.583 203.976 251.13C204.396 250.677 204.903 250.327 205.496 250.08C206.096 249.833 206.769 249.71 207.516 249.71ZM207.516 258.75C208.516 258.75 209.263 258.417 209.756 257.75C210.249 257.077 210.496 256.14 210.496 254.94C210.496 253.733 210.249 252.793 209.756 252.12C209.263 251.447 208.516 251.11 207.516 251.11C207.009 251.11 206.566 251.197 206.186 251.37C205.813 251.543 205.499 251.793 205.246 252.12C204.999 252.447 204.813 252.85 204.686 253.33C204.566 253.803 204.506 254.34 204.506 254.94C204.506 256.14 204.753 257.077 205.246 257.75C205.746 258.417 206.503 258.75 207.516 258.75ZM222.821 260.16C222.021 260.16 221.404 259.937 220.971 259.49C220.544 259.043 220.331 258.4 220.331 257.56V251.36H219.111C219.004 251.36 218.914 251.33 218.841 251.27C218.767 251.203 218.731 251.103 218.731 250.97V250.26L220.391 250.05L220.801 246.92C220.821 246.82 220.864 246.74 220.931 246.68C221.004 246.613 221.097 246.58 221.211 246.58H222.111V250.07H225.041V251.36H222.111V257.44C222.111 257.867 222.214 258.183 222.421 258.39C222.627 258.597 222.894 258.7 223.221 258.7C223.407 258.7 223.567 258.677 223.701 258.63C223.841 258.577 223.961 258.52 224.061 258.46C224.161 258.4 224.244 258.347 224.311 258.3C224.384 258.247 224.447 258.22 224.501 258.22C224.594 258.22 224.677 258.277 224.751 258.39L225.271 259.24C224.964 259.527 224.594 259.753 224.161 259.92C223.727 260.08 223.281 260.16 222.821 260.16ZM231.09 249.71C231.83 249.71 232.497 249.833 233.09 250.08C233.683 250.327 234.19 250.677 234.61 251.13C235.03 251.583 235.35 252.133 235.57 252.78C235.797 253.42 235.91 254.137 235.91 254.93C235.91 255.73 235.797 256.45 235.57 257.09C235.35 257.73 235.03 258.277 234.61 258.73C234.19 259.183 233.683 259.533 233.09 259.78C232.497 260.02 231.83 260.14 231.09 260.14C230.343 260.14 229.67 260.02 229.07 259.78C228.477 259.533 227.97 259.183 227.55 258.73C227.13 258.277 226.807 257.73 226.58 257.09C226.36 256.45 226.25 255.73 226.25 254.93C226.25 254.137 226.36 253.42 226.58 252.78C226.807 252.133 227.13 251.583 227.55 251.13C227.97 250.677 228.477 250.327 229.07 250.08C229.67 249.833 230.343 249.71 231.09 249.71ZM231.09 258.75C232.09 258.75 232.837 258.417 233.33 257.75C233.823 257.077 234.07 256.14 234.07 254.94C234.07 253.733 233.823 252.793 233.33 252.12C232.837 251.447 232.09 251.11 231.09 251.11C230.583 251.11 230.14 251.197 229.76 251.37C229.387 251.543 229.073 251.793 228.82 252.12C228.573 252.447 228.387 252.85 228.26 253.33C228.14 253.803 228.08 254.34 228.08 254.94C228.08 256.14 228.327 257.077 228.82 257.75C229.32 258.417 230.077 258.75 231.09 258.75ZM244.768 252.28C244.434 251.833 244.074 251.523 243.688 251.35C243.301 251.17 242.868 251.08 242.388 251.08C241.448 251.08 240.724 251.417 240.218 252.09C239.711 252.763 239.458 253.723 239.458 254.97C239.458 255.63 239.514 256.197 239.628 256.67C239.741 257.137 239.908 257.523 240.128 257.83C240.348 258.13 240.618 258.35 240.938 258.49C241.258 258.63 241.621 258.7 242.028 258.7C242.614 258.7 243.124 258.567 243.558 258.3C243.998 258.033 244.401 257.657 244.768 257.17V252.28ZM246.548 245.27V260H245.488C245.234 260 245.074 259.877 245.008 259.63L244.848 258.4C244.414 258.92 243.921 259.34 243.368 259.66C242.814 259.98 242.174 260.14 241.448 260.14C240.868 260.14 240.341 260.03 239.868 259.81C239.394 259.583 238.991 259.253 238.658 258.82C238.324 258.387 238.068 257.847 237.888 257.2C237.708 256.553 237.618 255.81 237.618 254.97C237.618 254.223 237.718 253.53 237.918 252.89C238.118 252.243 238.404 251.683 238.778 251.21C239.151 250.737 239.608 250.367 240.148 250.1C240.694 249.827 241.308 249.69 241.988 249.69C242.608 249.69 243.138 249.797 243.578 250.01C244.024 250.217 244.421 250.507 244.768 250.88V245.27H246.548ZM254.849 255.44C254.029 255.467 253.329 255.533 252.749 255.64C252.176 255.74 251.706 255.873 251.339 256.04C250.979 256.207 250.716 256.403 250.549 256.63C250.389 256.857 250.309 257.11 250.309 257.39C250.309 257.657 250.353 257.887 250.439 258.08C250.526 258.273 250.643 258.433 250.789 258.56C250.943 258.68 251.119 258.77 251.319 258.83C251.526 258.883 251.746 258.91 251.979 258.91C252.293 258.91 252.579 258.88 252.839 258.82C253.099 258.753 253.343 258.66 253.569 258.54C253.803 258.42 254.023 258.277 254.229 258.11C254.443 257.943 254.649 257.753 254.849 257.54V255.44ZM249.099 251.3C249.659 250.76 250.263 250.357 250.909 250.09C251.556 249.823 252.273 249.69 253.059 249.69C253.626 249.69 254.129 249.783 254.569 249.97C255.009 250.157 255.379 250.417 255.679 250.75C255.979 251.083 256.206 251.487 256.359 251.96C256.513 252.433 256.589 252.953 256.589 253.52V260H255.799C255.626 260 255.493 259.973 255.399 259.92C255.306 259.86 255.233 259.747 255.179 259.58L254.979 258.62C254.713 258.867 254.453 259.087 254.199 259.28C253.946 259.467 253.679 259.627 253.399 259.76C253.119 259.887 252.819 259.983 252.499 260.05C252.186 260.123 251.836 260.16 251.449 260.16C251.056 260.16 250.686 260.107 250.339 260C249.993 259.887 249.689 259.72 249.429 259.5C249.176 259.28 248.973 259.003 248.819 258.67C248.673 258.33 248.599 257.93 248.599 257.47C248.599 257.07 248.709 256.687 248.929 256.32C249.149 255.947 249.506 255.617 249.999 255.33C250.493 255.043 251.136 254.81 251.929 254.63C252.723 254.443 253.696 254.337 254.849 254.31V253.52C254.849 252.733 254.679 252.14 254.339 251.74C253.999 251.333 253.503 251.13 252.849 251.13C252.409 251.13 252.039 251.187 251.739 251.3C251.446 251.407 251.189 251.53 250.969 251.67C250.756 251.803 250.569 251.927 250.409 252.04C250.256 252.147 250.103 252.2 249.949 252.2C249.829 252.2 249.726 252.17 249.639 252.11C249.553 252.043 249.479 251.963 249.419 251.87L249.099 251.3ZM267.806 249.87L262.156 262.99C262.096 263.123 262.02 263.23 261.926 263.31C261.84 263.39 261.703 263.43 261.516 263.43H260.196L262.046 259.41L257.866 249.87H259.406C259.56 249.87 259.68 249.91 259.766 249.99C259.86 250.063 259.923 250.147 259.956 250.24L262.666 256.62C262.773 256.9 262.863 257.193 262.936 257.5C263.03 257.187 263.13 256.89 263.236 256.61L265.866 250.24C265.906 250.133 265.973 250.047 266.066 249.98C266.166 249.907 266.276 249.87 266.396 249.87H267.806ZM268.779 246.95C268.985 246.757 269.212 246.573 269.459 246.4C269.712 246.227 269.985 246.073 270.279 245.94C270.579 245.807 270.899 245.703 271.239 245.63C271.585 245.55 271.959 245.51 272.359 245.51C272.885 245.51 273.372 245.587 273.819 245.74C274.272 245.893 274.662 246.11 274.989 246.39C275.315 246.67 275.572 247.01 275.759 247.41C275.945 247.81 276.039 248.26 276.039 248.76C276.039 249.267 275.962 249.703 275.809 250.07C275.662 250.437 275.472 250.76 275.239 251.04C275.012 251.313 274.762 251.553 274.489 251.76C274.222 251.96 273.969 252.15 273.729 252.33C273.489 252.51 273.282 252.69 273.109 252.87C272.942 253.05 272.845 253.25 272.819 253.47L272.639 255H271.419L271.299 253.34C271.272 253.04 271.329 252.78 271.469 252.56C271.609 252.333 271.792 252.123 272.019 251.93C272.245 251.73 272.495 251.537 272.769 251.35C273.042 251.157 273.295 250.943 273.529 250.71C273.769 250.477 273.969 250.213 274.129 249.92C274.289 249.62 274.369 249.263 274.369 248.85C274.369 248.563 274.312 248.303 274.199 248.07C274.085 247.837 273.932 247.64 273.739 247.48C273.545 247.313 273.315 247.187 273.049 247.1C272.789 247.013 272.509 246.97 272.209 246.97C271.802 246.97 271.452 247.02 271.159 247.12C270.872 247.22 270.629 247.33 270.429 247.45C270.229 247.57 270.065 247.68 269.939 247.78C269.819 247.88 269.719 247.93 269.639 247.93C269.472 247.93 269.342 247.853 269.249 247.7L268.779 246.95ZM270.729 258.9C270.729 258.727 270.759 258.563 270.819 258.41C270.885 258.257 270.972 258.123 271.079 258.01C271.192 257.897 271.325 257.807 271.479 257.74C271.632 257.673 271.795 257.64 271.969 257.64C272.142 257.64 272.305 257.673 272.459 257.74C272.612 257.807 272.745 257.897 272.859 258.01C272.972 258.123 273.062 258.257 273.129 258.41C273.195 258.563 273.229 258.727 273.229 258.9C273.229 259.08 273.195 259.247 273.129 259.4C273.062 259.547 272.972 259.677 272.859 259.79C272.745 259.903 272.612 259.99 272.459 260.05C272.305 260.117 272.142 260.15 271.969 260.15C271.795 260.15 271.632 260.117 271.479 260.05C271.325 259.99 271.192 259.903 271.079 259.79C270.972 259.677 270.885 259.547 270.819 259.4C270.759 259.247 270.729 259.08 270.729 258.9Z" fill="white" fill-opacity="0.87"/>
<path d="M65.216 284.84H61.504V295H59.96V284.84H56.24V283.536H65.216V284.84ZM69.145 291.352C68.489 291.373 67.929 291.427 67.465 291.512C67.0063 291.592 66.6303 291.699 66.337 291.832C66.049 291.965 65.8383 292.123 65.705 292.304C65.577 292.485 65.513 292.688 65.513 292.912C65.513 293.125 65.5477 293.309 65.617 293.464C65.6863 293.619 65.7797 293.747 65.897 293.848C66.0197 293.944 66.161 294.016 66.321 294.064C66.4863 294.107 66.6623 294.128 66.849 294.128C67.0997 294.128 67.329 294.104 67.537 294.056C67.745 294.003 67.9397 293.928 68.121 293.832C68.3077 293.736 68.4837 293.621 68.649 293.488C68.8197 293.355 68.985 293.203 69.145 293.032V291.352ZM64.545 288.04C64.993 287.608 65.4757 287.285 65.993 287.072C66.5103 286.859 67.0837 286.752 67.713 286.752C68.1663 286.752 68.569 286.827 68.921 286.976C69.273 287.125 69.569 287.333 69.809 287.6C70.049 287.867 70.2303 288.189 70.353 288.568C70.4757 288.947 70.537 289.363 70.537 289.816V295H69.905C69.7663 295 69.6597 294.979 69.585 294.936C69.5103 294.888 69.4517 294.797 69.409 294.664L69.249 293.896C69.0357 294.093 68.8277 294.269 68.625 294.424C68.4223 294.573 68.209 294.701 67.985 294.808C67.761 294.909 67.521 294.987 67.265 295.04C67.0143 295.099 66.7343 295.128 66.425 295.128C66.1103 295.128 65.8143 295.085 65.537 295C65.2597 294.909 65.017 294.776 64.809 294.6C64.6063 294.424 64.4437 294.203 64.321 293.936C64.2037 293.664 64.145 293.344 64.145 292.976C64.145 292.656 64.233 292.349 64.409 292.056C64.585 291.757 64.8703 291.493 65.265 291.264C65.6597 291.035 66.1743 290.848 66.809 290.704C67.4437 290.555 68.2223 290.469 69.145 290.448V289.816C69.145 289.187 69.009 288.712 68.737 288.392C68.465 288.067 68.0677 287.904 67.545 287.904C67.193 287.904 66.897 287.949 66.657 288.04C66.4223 288.125 66.217 288.224 66.041 288.336C65.8703 288.443 65.721 288.541 65.593 288.632C65.4703 288.717 65.3477 288.76 65.225 288.76C65.129 288.76 65.0463 288.736 64.977 288.688C64.9077 288.635 64.849 288.571 64.801 288.496L64.545 288.04ZM74.1381 293.048C74.3995 293.4 74.6848 293.648 74.9941 293.792C75.3035 293.936 75.6501 294.008 76.0341 294.008C76.7915 294.008 77.3728 293.739 77.7781 293.2C78.1835 292.661 78.3861 291.893 78.3861 290.896C78.3861 290.368 78.3381 289.915 78.2421 289.536C78.1515 289.157 78.0181 288.848 77.8421 288.608C77.6661 288.363 77.4501 288.184 77.1941 288.072C76.9381 287.96 76.6475 287.904 76.3221 287.904C75.8581 287.904 75.4501 288.011 75.0981 288.224C74.7515 288.437 74.4315 288.739 74.1381 289.128V293.048ZM74.0661 288.152C74.4075 287.731 74.8021 287.392 75.2501 287.136C75.6981 286.88 76.2101 286.752 76.7861 286.752C77.2555 286.752 77.6795 286.843 78.0581 287.024C78.4368 287.2 78.7595 287.464 79.0261 287.816C79.2928 288.163 79.4981 288.595 79.6421 289.112C79.7861 289.629 79.8581 290.224 79.8581 290.896C79.8581 291.493 79.7781 292.051 79.6181 292.568C79.4581 293.08 79.2261 293.525 78.9221 293.904C78.6235 294.277 78.2555 294.573 77.8181 294.792C77.3861 295.005 76.8981 295.112 76.3541 295.112C75.8581 295.112 75.4315 295.029 75.0741 294.864C74.7221 294.693 74.4101 294.459 74.1381 294.16V297.744H72.7061V286.896H73.5621C73.7648 286.896 73.8901 286.995 73.9381 287.192L74.0661 288.152ZM93.1206 290.168H89.8566V293.608H88.6966V290.168H85.4486V289.088H88.6966V285.672H89.8566V289.088H93.1206V290.168ZM101.632 295.128C100.992 295.128 100.498 294.949 100.152 294.592C99.8103 294.235 99.6396 293.72 99.6396 293.048V288.088H98.6636C98.5783 288.088 98.5063 288.064 98.4476 288.016C98.389 287.963 98.3596 287.883 98.3596 287.776V287.208L99.6876 287.04L100.016 284.536C100.032 284.456 100.066 284.392 100.12 284.344C100.178 284.291 100.253 284.264 100.344 284.264H101.064V287.056H103.408V288.088H101.064V292.952C101.064 293.293 101.146 293.547 101.312 293.712C101.477 293.877 101.69 293.96 101.952 293.96C102.101 293.96 102.229 293.941 102.336 293.904C102.448 293.861 102.544 293.816 102.624 293.768C102.704 293.72 102.77 293.677 102.824 293.64C102.882 293.597 102.933 293.576 102.976 293.576C103.05 293.576 103.117 293.621 103.176 293.712L103.592 294.392C103.346 294.621 103.05 294.803 102.704 294.936C102.357 295.064 102 295.128 101.632 295.128ZM108.247 286.768C108.839 286.768 109.372 286.867 109.847 287.064C110.322 287.261 110.727 287.541 111.063 287.904C111.399 288.267 111.655 288.707 111.831 289.224C112.012 289.736 112.103 290.309 112.103 290.944C112.103 291.584 112.012 292.16 111.831 292.672C111.655 293.184 111.399 293.621 111.063 293.984C110.727 294.347 110.322 294.627 109.847 294.824C109.372 295.016 108.839 295.112 108.247 295.112C107.65 295.112 107.111 295.016 106.631 294.824C106.156 294.627 105.751 294.347 105.415 293.984C105.079 293.621 104.82 293.184 104.639 292.672C104.463 292.16 104.375 291.584 104.375 290.944C104.375 290.309 104.463 289.736 104.639 289.224C104.82 288.707 105.079 288.267 105.415 287.904C105.751 287.541 106.156 287.261 106.631 287.064C107.111 286.867 107.65 286.768 108.247 286.768ZM108.247 294C109.047 294 109.644 293.733 110.039 293.2C110.434 292.661 110.631 291.912 110.631 290.952C110.631 289.987 110.434 289.235 110.039 288.696C109.644 288.157 109.047 287.888 108.247 287.888C107.842 287.888 107.487 287.957 107.183 288.096C106.884 288.235 106.634 288.435 106.431 288.696C106.234 288.957 106.084 289.28 105.983 289.664C105.887 290.043 105.839 290.472 105.839 290.952C105.839 291.912 106.036 292.661 106.431 293.2C106.831 293.733 107.436 294 108.247 294ZM122.395 291.352C121.739 291.373 121.179 291.427 120.715 291.512C120.256 291.592 119.88 291.699 119.587 291.832C119.299 291.965 119.088 292.123 118.955 292.304C118.827 292.485 118.763 292.688 118.763 292.912C118.763 293.125 118.798 293.309 118.867 293.464C118.936 293.619 119.03 293.747 119.147 293.848C119.27 293.944 119.411 294.016 119.571 294.064C119.736 294.107 119.912 294.128 120.099 294.128C120.35 294.128 120.579 294.104 120.787 294.056C120.995 294.003 121.19 293.928 121.371 293.832C121.558 293.736 121.734 293.621 121.899 293.488C122.07 293.355 122.235 293.203 122.395 293.032V291.352ZM117.795 288.04C118.243 287.608 118.726 287.285 119.243 287.072C119.76 286.859 120.334 286.752 120.963 286.752C121.416 286.752 121.819 286.827 122.171 286.976C122.523 287.125 122.819 287.333 123.059 287.6C123.299 287.867 123.48 288.189 123.603 288.568C123.726 288.947 123.787 289.363 123.787 289.816V295H123.155C123.016 295 122.91 294.979 122.835 294.936C122.76 294.888 122.702 294.797 122.659 294.664L122.499 293.896C122.286 294.093 122.078 294.269 121.875 294.424C121.672 294.573 121.459 294.701 121.235 294.808C121.011 294.909 120.771 294.987 120.515 295.04C120.264 295.099 119.984 295.128 119.675 295.128C119.36 295.128 119.064 295.085 118.787 295C118.51 294.909 118.267 294.776 118.059 294.6C117.856 294.424 117.694 294.203 117.571 293.936C117.454 293.664 117.395 293.344 117.395 292.976C117.395 292.656 117.483 292.349 117.659 292.056C117.835 291.757 118.12 291.493 118.515 291.264C118.91 291.035 119.424 290.848 120.059 290.704C120.694 290.555 121.472 290.469 122.395 290.448V289.816C122.395 289.187 122.259 288.712 121.987 288.392C121.715 288.067 121.318 287.904 120.795 287.904C120.443 287.904 120.147 287.949 119.907 288.04C119.672 288.125 119.467 288.224 119.291 288.336C119.12 288.443 118.971 288.541 118.843 288.632C118.72 288.717 118.598 288.76 118.475 288.76C118.379 288.76 118.296 288.736 118.227 288.688C118.158 288.635 118.099 288.571 118.051 288.496L117.795 288.04ZM131.236 288.824C130.969 288.467 130.681 288.219 130.372 288.08C130.063 287.936 129.716 287.864 129.332 287.864C128.58 287.864 128.001 288.133 127.596 288.672C127.191 289.211 126.988 289.979 126.988 290.976C126.988 291.504 127.033 291.957 127.124 292.336C127.215 292.709 127.348 293.019 127.524 293.264C127.7 293.504 127.916 293.68 128.172 293.792C128.428 293.904 128.719 293.96 129.044 293.96C129.513 293.96 129.921 293.853 130.268 293.64C130.62 293.427 130.943 293.125 131.236 292.736V288.824ZM132.66 283.216V295H131.812C131.609 295 131.481 294.901 131.428 294.704L131.3 293.72C130.953 294.136 130.559 294.472 130.116 294.728C129.673 294.984 129.161 295.112 128.58 295.112C128.116 295.112 127.695 295.024 127.316 294.848C126.937 294.667 126.615 294.403 126.348 294.056C126.081 293.709 125.876 293.277 125.732 292.76C125.588 292.243 125.516 291.648 125.516 290.976C125.516 290.379 125.596 289.824 125.756 289.312C125.916 288.795 126.145 288.347 126.444 287.968C126.743 287.589 127.108 287.293 127.54 287.08C127.977 286.861 128.468 286.752 129.012 286.752C129.508 286.752 129.932 286.837 130.284 287.008C130.641 287.173 130.959 287.405 131.236 287.704V283.216H132.66ZM140.189 288.824C139.923 288.467 139.635 288.219 139.325 288.08C139.016 287.936 138.669 287.864 138.285 287.864C137.533 287.864 136.955 288.133 136.549 288.672C136.144 289.211 135.941 289.979 135.941 290.976C135.941 291.504 135.987 291.957 136.077 292.336C136.168 292.709 136.301 293.019 136.477 293.264C136.653 293.504 136.869 293.68 137.125 293.792C137.381 293.904 137.672 293.96 137.997 293.96C138.467 293.96 138.875 293.853 139.221 293.64C139.573 293.427 139.896 293.125 140.189 292.736V288.824ZM141.613 283.216V295H140.765C140.563 295 140.435 294.901 140.381 294.704L140.253 293.72C139.907 294.136 139.512 294.472 139.069 294.728C138.627 294.984 138.115 295.112 137.533 295.112C137.069 295.112 136.648 295.024 136.269 294.848C135.891 294.667 135.568 294.403 135.301 294.056C135.035 293.709 134.829 293.277 134.685 292.76C134.541 292.243 134.469 291.648 134.469 290.976C134.469 290.379 134.549 289.824 134.709 289.312C134.869 288.795 135.099 288.347 135.397 287.968C135.696 287.589 136.061 287.293 136.493 287.08C136.931 286.861 137.421 286.752 137.965 286.752C138.461 286.752 138.885 286.837 139.237 287.008C139.595 287.173 139.912 287.405 140.189 287.704V283.216H141.613ZM154.542 286.896L150.022 297.392C149.974 297.499 149.913 297.584 149.838 297.648C149.769 297.712 149.659 297.744 149.51 297.744H148.454L149.934 294.528L146.59 286.896H147.822C147.945 286.896 148.041 286.928 148.11 286.992C148.185 287.051 148.235 287.117 148.262 287.192L150.43 292.296C150.515 292.52 150.587 292.755 150.646 293C150.721 292.749 150.801 292.512 150.886 292.288L152.99 287.192C153.022 287.107 153.075 287.037 153.15 286.984C153.23 286.925 153.318 286.896 153.414 286.896H154.542ZM158.997 286.768C159.589 286.768 160.122 286.867 160.597 287.064C161.072 287.261 161.477 287.541 161.813 287.904C162.149 288.267 162.405 288.707 162.581 289.224C162.762 289.736 162.853 290.309 162.853 290.944C162.853 291.584 162.762 292.16 162.581 292.672C162.405 293.184 162.149 293.621 161.813 293.984C161.477 294.347 161.072 294.627 160.597 294.824C160.122 295.016 159.589 295.112 158.997 295.112C158.4 295.112 157.861 295.016 157.381 294.824C156.906 294.627 156.501 294.347 156.165 293.984C155.829 293.621 155.57 293.184 155.389 292.672C155.213 292.16 155.125 291.584 155.125 290.944C155.125 290.309 155.213 289.736 155.389 289.224C155.57 288.707 155.829 288.267 156.165 287.904C156.501 287.541 156.906 287.261 157.381 287.064C157.861 286.867 158.4 286.768 158.997 286.768ZM158.997 294C159.797 294 160.394 293.733 160.789 293.2C161.184 292.661 161.381 291.912 161.381 290.952C161.381 289.987 161.184 289.235 160.789 288.696C160.394 288.157 159.797 287.888 158.997 287.888C158.592 287.888 158.237 287.957 157.933 288.096C157.634 288.235 157.384 288.435 157.181 288.696C156.984 288.957 156.834 289.28 156.733 289.664C156.637 290.043 156.589 290.472 156.589 290.952C156.589 291.912 156.786 292.661 157.181 293.2C157.581 293.733 158.186 294 158.997 294ZM171.323 286.896V295H170.475C170.273 295 170.145 294.901 170.091 294.704L169.979 293.832C169.627 294.221 169.233 294.536 168.795 294.776C168.358 295.011 167.857 295.128 167.291 295.128C166.849 295.128 166.457 295.056 166.115 294.912C165.779 294.763 165.497 294.555 165.267 294.288C165.038 294.021 164.865 293.699 164.747 293.32C164.635 292.941 164.579 292.523 164.579 292.064V286.896H166.003V292.064C166.003 292.677 166.142 293.152 166.419 293.488C166.702 293.824 167.131 293.992 167.707 293.992C168.129 293.992 168.521 293.893 168.883 293.696C169.251 293.493 169.59 293.216 169.899 292.864V286.896H171.323ZM174.933 288.52C175.189 287.965 175.504 287.533 175.877 287.224C176.25 286.909 176.706 286.752 177.245 286.752C177.416 286.752 177.578 286.771 177.733 286.808C177.893 286.845 178.034 286.904 178.157 286.984L178.053 288.048C178.021 288.181 177.941 288.248 177.813 288.248C177.738 288.248 177.629 288.232 177.485 288.2C177.341 288.168 177.178 288.152 176.997 288.152C176.741 288.152 176.512 288.189 176.309 288.264C176.112 288.339 175.933 288.451 175.773 288.6C175.618 288.744 175.477 288.925 175.349 289.144C175.226 289.357 175.114 289.603 175.013 289.88V295H173.581V286.896H174.397C174.552 286.896 174.658 286.925 174.717 286.984C174.776 287.043 174.816 287.144 174.837 287.288L174.933 288.52ZM185.647 295.128C185.007 295.128 184.514 294.949 184.167 294.592C183.826 294.235 183.655 293.72 183.655 293.048V288.088H182.679C182.594 288.088 182.522 288.064 182.463 288.016C182.405 287.963 182.375 287.883 182.375 287.776V287.208L183.703 287.04L184.031 284.536C184.047 284.456 184.082 284.392 184.135 284.344C184.194 284.291 184.269 284.264 184.359 284.264H185.079V287.056H187.423V288.088H185.079V292.952C185.079 293.293 185.162 293.547 185.327 293.712C185.493 293.877 185.706 293.96 185.967 293.96C186.117 293.96 186.245 293.941 186.351 293.904C186.463 293.861 186.559 293.816 186.639 293.768C186.719 293.72 186.786 293.677 186.839 293.64C186.898 293.597 186.949 293.576 186.991 293.576C187.066 293.576 187.133 293.621 187.191 293.712L187.607 294.392C187.362 294.621 187.066 294.803 186.719 294.936C186.373 295.064 186.015 295.128 185.647 295.128ZM193.286 291.352C192.63 291.373 192.07 291.427 191.606 291.512C191.147 291.592 190.771 291.699 190.478 291.832C190.19 291.965 189.979 292.123 189.846 292.304C189.718 292.485 189.654 292.688 189.654 292.912C189.654 293.125 189.688 293.309 189.758 293.464C189.827 293.619 189.92 293.747 190.038 293.848C190.16 293.944 190.302 294.016 190.462 294.064C190.627 294.107 190.803 294.128 190.99 294.128C191.24 294.128 191.47 294.104 191.678 294.056C191.886 294.003 192.08 293.928 192.262 293.832C192.448 293.736 192.624 293.621 192.79 293.488C192.96 293.355 193.126 293.203 193.286 293.032V291.352ZM188.686 288.04C189.134 287.608 189.616 287.285 190.134 287.072C190.651 286.859 191.224 286.752 191.854 286.752C192.307 286.752 192.71 286.827 193.062 286.976C193.414 287.125 193.71 287.333 193.95 287.6C194.19 287.867 194.371 288.189 194.494 288.568C194.616 288.947 194.678 289.363 194.678 289.816V295H194.046C193.907 295 193.8 294.979 193.726 294.936C193.651 294.888 193.592 294.797 193.55 294.664L193.39 293.896C193.176 294.093 192.968 294.269 192.766 294.424C192.563 294.573 192.35 294.701 192.126 294.808C191.902 294.909 191.662 294.987 191.406 295.04C191.155 295.099 190.875 295.128 190.566 295.128C190.251 295.128 189.955 295.085 189.678 295C189.4 294.909 189.158 294.776 188.95 294.6C188.747 294.424 188.584 294.203 188.462 293.936C188.344 293.664 188.286 293.344 188.286 292.976C188.286 292.656 188.374 292.349 188.55 292.056C188.726 291.757 189.011 291.493 189.406 291.264C189.8 291.035 190.315 290.848 190.95 290.704C191.584 290.555 192.363 290.469 193.286 290.448V289.816C193.286 289.187 193.15 288.712 192.878 288.392C192.606 288.067 192.208 287.904 191.686 287.904C191.334 287.904 191.038 287.949 190.798 288.04C190.563 288.125 190.358 288.224 190.182 288.336C190.011 288.443 189.862 288.541 189.734 288.632C189.611 288.717 189.488 288.76 189.366 288.76C189.27 288.76 189.187 288.736 189.118 288.688C189.048 288.635 188.99 288.571 188.942 288.496L188.686 288.04ZM201.567 288.232C201.503 288.349 201.404 288.408 201.271 288.408C201.191 288.408 201.1 288.379 200.999 288.32C200.897 288.261 200.772 288.197 200.623 288.128C200.479 288.053 200.305 287.987 200.103 287.928C199.9 287.864 199.66 287.832 199.383 287.832C199.143 287.832 198.927 287.864 198.735 287.928C198.543 287.987 198.377 288.069 198.239 288.176C198.105 288.283 198.001 288.408 197.927 288.552C197.857 288.691 197.823 288.843 197.823 289.008C197.823 289.216 197.881 289.389 197.999 289.528C198.121 289.667 198.281 289.787 198.479 289.888C198.676 289.989 198.9 290.08 199.151 290.16C199.401 290.235 199.657 290.317 199.919 290.408C200.185 290.493 200.444 290.589 200.695 290.696C200.945 290.803 201.169 290.936 201.367 291.096C201.564 291.256 201.721 291.453 201.839 291.688C201.961 291.917 202.023 292.195 202.023 292.52C202.023 292.893 201.956 293.24 201.823 293.56C201.689 293.875 201.492 294.149 201.231 294.384C200.969 294.613 200.649 294.795 200.271 294.928C199.892 295.061 199.455 295.128 198.959 295.128C198.393 295.128 197.881 295.037 197.423 294.856C196.964 294.669 196.575 294.432 196.255 294.144L196.591 293.6C196.633 293.531 196.684 293.477 196.743 293.44C196.801 293.403 196.876 293.384 196.967 293.384C197.063 293.384 197.164 293.421 197.271 293.496C197.377 293.571 197.505 293.653 197.655 293.744C197.809 293.835 197.996 293.917 198.215 293.992C198.433 294.067 198.705 294.104 199.031 294.104C199.308 294.104 199.551 294.069 199.759 294C199.967 293.925 200.14 293.827 200.279 293.704C200.417 293.581 200.519 293.44 200.583 293.28C200.652 293.12 200.687 292.949 200.687 292.768C200.687 292.544 200.625 292.36 200.503 292.216C200.385 292.067 200.228 291.941 200.031 291.84C199.833 291.733 199.607 291.643 199.351 291.568C199.1 291.488 198.841 291.405 198.575 291.32C198.313 291.235 198.055 291.139 197.799 291.032C197.548 290.92 197.324 290.781 197.127 290.616C196.929 290.451 196.769 290.248 196.647 290.008C196.529 289.763 196.471 289.467 196.471 289.12C196.471 288.811 196.535 288.515 196.663 288.232C196.791 287.944 196.977 287.693 197.223 287.48C197.468 287.261 197.769 287.088 198.127 286.96C198.484 286.832 198.892 286.768 199.351 286.768C199.884 286.768 200.361 286.853 200.783 287.024C201.209 287.189 201.577 287.419 201.887 287.712L201.567 288.232ZM205.201 283.216V290.152H205.569C205.675 290.152 205.763 290.139 205.833 290.112C205.907 290.08 205.985 290.019 206.065 289.928L208.625 287.184C208.699 287.093 208.777 287.024 208.857 286.976C208.942 286.923 209.054 286.896 209.193 286.896H210.481L207.497 290.072C207.353 290.253 207.198 290.395 207.033 290.496C207.129 290.56 207.214 290.635 207.289 290.72C207.369 290.8 207.443 290.893 207.513 291L210.681 295H209.409C209.286 295 209.179 294.981 209.089 294.944C209.003 294.901 208.929 294.827 208.865 294.72L206.201 291.4C206.121 291.288 206.041 291.216 205.961 291.184C205.886 291.147 205.769 291.128 205.609 291.128H205.201V295H203.769V283.216H205.201ZM216.614 288.232C216.55 288.349 216.451 288.408 216.318 288.408C216.238 288.408 216.147 288.379 216.046 288.32C215.944 288.261 215.819 288.197 215.67 288.128C215.526 288.053 215.352 287.987 215.15 287.928C214.947 287.864 214.707 287.832 214.43 287.832C214.19 287.832 213.974 287.864 213.782 287.928C213.59 287.987 213.424 288.069 213.286 288.176C213.152 288.283 213.048 288.408 212.974 288.552C212.904 288.691 212.87 288.843 212.87 289.008C212.87 289.216 212.928 289.389 213.046 289.528C213.168 289.667 213.328 289.787 213.526 289.888C213.723 289.989 213.947 290.08 214.198 290.16C214.448 290.235 214.704 290.317 214.966 290.408C215.232 290.493 215.491 290.589 215.742 290.696C215.992 290.803 216.216 290.936 216.414 291.096C216.611 291.256 216.768 291.453 216.886 291.688C217.008 291.917 217.07 292.195 217.07 292.52C217.07 292.893 217.003 293.24 216.87 293.56C216.736 293.875 216.539 294.149 216.278 294.384C216.016 294.613 215.696 294.795 215.318 294.928C214.939 295.061 214.502 295.128 214.006 295.128C213.44 295.128 212.928 295.037 212.47 294.856C212.011 294.669 211.622 294.432 211.302 294.144L211.638 293.6C211.68 293.531 211.731 293.477 211.79 293.44C211.848 293.403 211.923 293.384 212.014 293.384C212.11 293.384 212.211 293.421 212.318 293.496C212.424 293.571 212.552 293.653 212.702 293.744C212.856 293.835 213.043 293.917 213.262 293.992C213.48 294.067 213.752 294.104 214.078 294.104C214.355 294.104 214.598 294.069 214.806 294C215.014 293.925 215.187 293.827 215.326 293.704C215.464 293.581 215.566 293.44 215.63 293.28C215.699 293.12 215.734 292.949 215.734 292.768C215.734 292.544 215.672 292.36 215.55 292.216C215.432 292.067 215.275 291.941 215.078 291.84C214.88 291.733 214.654 291.643 214.398 291.568C214.147 291.488 213.888 291.405 213.622 291.32C213.36 291.235 213.102 291.139 212.846 291.032C212.595 290.92 212.371 290.781 212.174 290.616C211.976 290.451 211.816 290.248 211.694 290.008C211.576 289.763 211.518 289.467 211.518 289.12C211.518 288.811 211.582 288.515 211.71 288.232C211.838 287.944 212.024 287.693 212.27 287.48C212.515 287.261 212.816 287.088 213.174 286.96C213.531 286.832 213.939 286.768 214.398 286.768C214.931 286.768 215.408 286.853 215.83 287.024C216.256 287.189 216.624 287.419 216.934 287.712L216.614 288.232Z" fill="white" fill-opacity="0.87"/>
</svg>
