<svg width="135" height="180" viewBox="0 0 135 180" fill="none" xmlns="http://www.w3.org/2000/svg">
<path d="M103.29 61.722V79.8945C103.29 84.4281 101.681 88.3046 98.4613 91.5238C95.2421 94.7431 91.3656 96.3527 86.832 96.3527H39.2863C34.7527 96.3527 30.8762 94.7431 27.657 91.5238C24.4377 88.3046 22.8281 84.4281 22.8281 79.8945V32.3488C22.8281 27.8152 24.4377 23.9387 27.657 20.7195C30.8762 17.5002 34.7527 15.8906 39.2863 15.8906H86.832C89.2322 15.8906 91.4609 16.3668 93.5181 17.3193C94.0896 17.586 94.4325 18.0241 94.5468 18.6336C94.6611 19.2813 94.4896 19.8337 94.0325 20.2909L91.2323 23.0911C90.8513 23.472 90.4132 23.6625 89.9179 23.6625C89.8036 23.6625 89.6322 23.6244 89.4036 23.5482C88.5274 23.3196 87.6702 23.2054 86.832 23.2054H39.2863C36.7718 23.2054 34.6193 24.1006 32.8287 25.8912C31.0381 27.6818 30.1429 29.8343 30.1429 32.3488V79.8945C30.1429 82.409 31.0381 84.5615 32.8287 86.3521C34.6193 88.1427 36.7718 89.0379 39.2863 89.0379H86.832C89.3465 89.0379 91.499 88.1427 93.2896 86.3521C95.0801 84.5615 95.9754 82.409 95.9754 79.8945V65.3794C95.9754 64.8841 96.1469 64.465 96.4898 64.1221L100.147 60.4648C100.528 60.0838 100.966 59.8933 101.461 59.8933C101.69 59.8933 101.919 59.9505 102.147 60.0647C102.909 60.3695 103.29 60.9219 103.29 61.722ZM116.491 33.7774L69.9739 80.2946C69.0595 81.2089 67.9737 81.6661 66.7165 81.6661C65.4593 81.6661 64.3735 81.2089 63.4592 80.2946L38.8862 55.7216C37.9719 54.8073 37.5147 53.7215 37.5147 52.4643C37.5147 51.2071 37.9719 50.1213 38.8862 49.2069L45.1723 42.9208C46.0867 42.0065 47.1725 41.5493 48.4297 41.5493C49.6869 41.5493 50.7727 42.0065 51.687 42.9208L66.7165 57.9503L103.69 20.9766C104.605 20.0623 105.69 19.6051 106.948 19.6051C108.205 19.6051 109.291 20.0623 110.205 20.9766L116.491 27.2627C117.405 28.1771 117.862 29.2629 117.862 30.5201C117.862 31.7773 117.405 32.8631 116.491 33.7774Z" fill="#8685E7"/>
<path d="M14.86 166.66C15.9 166.66 16.8267 166.487 17.64 166.14C18.4667 165.793 19.16 165.307 19.72 164.68C20.28 164.053 20.7067 163.293 21 162.4C21.3067 161.507 21.46 160.507 21.46 159.4V142.08H26.84V159.4C26.84 161.12 26.56 162.713 26 164.18C25.4533 165.633 24.66 166.893 23.62 167.96C22.5933 169.013 21.34 169.84 19.86 170.44C18.38 171.027 16.7133 171.32 14.86 171.32C12.9933 171.32 11.32 171.027 9.84 170.44C8.36 169.84 7.1 169.013 6.06 167.96C5.03333 166.893 4.24 165.633 3.68 164.18C3.13333 162.713 2.86 161.12 2.86 159.4V142.08H8.24V159.38C8.24 160.487 8.38667 161.487 8.68 162.38C8.98667 163.273 9.42 164.04 9.98 164.68C10.5533 165.307 11.2467 165.793 12.06 166.14C12.8867 166.487 13.82 166.66 14.86 166.66ZM36.4034 165.68C36.9634 166.36 37.5701 166.84 38.2234 167.12C38.8901 167.4 39.6101 167.54 40.3834 167.54C41.1301 167.54 41.8034 167.4 42.4034 167.12C43.0034 166.84 43.5101 166.413 43.9234 165.84C44.3501 165.267 44.6768 164.547 44.9034 163.68C45.1301 162.8 45.2434 161.767 45.2434 160.58C45.2434 159.38 45.1434 158.367 44.9434 157.54C44.7568 156.7 44.4834 156.02 44.1234 155.5C43.7634 154.98 43.3234 154.6 42.8034 154.36C42.2968 154.12 41.7168 154 41.0634 154C40.0368 154 39.1634 154.22 38.4434 154.66C37.7234 155.087 37.0434 155.693 36.4034 156.48V165.68ZM36.1434 153.28C36.9834 152.333 37.9368 151.567 39.0034 150.98C40.0701 150.393 41.3234 150.1 42.7634 150.1C43.8834 150.1 44.9034 150.333 45.8234 150.8C46.7568 151.267 47.5568 151.947 48.2234 152.84C48.9034 153.72 49.4234 154.813 49.7834 156.12C50.1568 157.413 50.3434 158.9 50.3434 160.58C50.3434 162.113 50.1368 163.533 49.7234 164.84C49.3101 166.147 48.7168 167.28 47.9434 168.24C47.1834 169.2 46.2568 169.953 45.1634 170.5C44.0834 171.033 42.8701 171.3 41.5234 171.3C40.3768 171.3 39.3968 171.127 38.5834 170.78C37.7701 170.42 37.0434 169.927 36.4034 169.3V177.7H31.4634V150.48H34.4834C35.1234 150.48 35.5434 150.78 35.7434 151.38L36.1434 153.28ZM70.4513 146.5H61.7313V171H56.3513V146.5H47.6313V142.08H70.4513V146.5ZM77.7309 150.16C79.2509 150.16 80.6309 150.407 81.8709 150.9C83.1243 151.393 84.1909 152.093 85.0709 153C85.9643 153.907 86.6509 155.013 87.1309 156.32C87.6109 157.627 87.8509 159.087 87.8509 160.7C87.8509 162.327 87.6109 163.793 87.1309 165.1C86.6509 166.407 85.9643 167.52 85.0709 168.44C84.1909 169.36 83.1243 170.067 81.8709 170.56C80.6309 171.053 79.2509 171.3 77.7309 171.3C76.1976 171.3 74.8043 171.053 73.5509 170.56C72.2976 170.067 71.2243 169.36 70.3309 168.44C69.4509 167.52 68.7643 166.407 68.2709 165.1C67.7909 163.793 67.5509 162.327 67.5509 160.7C67.5509 159.087 67.7909 157.627 68.2709 156.32C68.7643 155.013 69.4509 153.907 70.3309 153C71.2243 152.093 72.2976 151.393 73.5509 150.9C74.8043 150.407 76.1976 150.16 77.7309 150.16ZM77.7309 167.5C79.4376 167.5 80.6976 166.927 81.5109 165.78C82.3376 164.633 82.7509 162.953 82.7509 160.74C82.7509 158.527 82.3376 156.84 81.5109 155.68C80.6976 154.52 79.4376 153.94 77.7309 153.94C75.9976 153.94 74.7109 154.527 73.8709 155.7C73.0443 156.86 72.6309 158.54 72.6309 160.74C72.6309 162.94 73.0443 164.62 73.8709 165.78C74.7109 166.927 75.9976 167.5 77.7309 167.5ZM104.5 155.72C103.94 155.04 103.326 154.56 102.66 154.28C102.006 154 101.3 153.86 100.54 153.86C99.793 153.86 99.1197 154 98.5197 154.28C97.9197 154.56 97.4064 154.987 96.9797 155.56C96.553 156.12 96.2264 156.84 95.9997 157.72C95.773 158.587 95.6597 159.613 95.6597 160.8C95.6597 162 95.753 163.02 95.9397 163.86C96.1397 164.687 96.4197 165.367 96.7797 165.9C97.1397 166.42 97.5797 166.8 98.0997 167.04C98.6197 167.267 99.1997 167.38 99.8397 167.38C100.866 167.38 101.74 167.167 102.46 166.74C103.18 166.313 103.86 165.707 104.5 164.92V155.72ZM109.44 141.28V171H106.42C105.766 171 105.353 170.7 105.18 170.1L104.76 168.12C103.933 169.067 102.98 169.833 101.9 170.42C100.833 171.007 99.5864 171.3 98.1597 171.3C97.0397 171.3 96.013 171.067 95.0797 170.6C94.1464 170.133 93.3397 169.46 92.6597 168.58C91.993 167.687 91.473 166.587 91.0997 165.28C90.7397 163.973 90.5597 162.48 90.5597 160.8C90.5597 159.28 90.7664 157.867 91.1797 156.56C91.593 155.253 92.1864 154.12 92.9597 153.16C93.733 152.2 94.6597 151.453 95.7397 150.92C96.8197 150.373 98.033 150.1 99.3797 150.1C100.526 150.1 101.506 150.28 102.32 150.64C103.133 151 103.86 151.487 104.5 152.1V141.28H109.44ZM123.395 150.16C124.915 150.16 126.295 150.407 127.535 150.9C128.788 151.393 129.855 152.093 130.735 153C131.628 153.907 132.315 155.013 132.795 156.32C133.275 157.627 133.515 159.087 133.515 160.7C133.515 162.327 133.275 163.793 132.795 165.1C132.315 166.407 131.628 167.52 130.735 168.44C129.855 169.36 128.788 170.067 127.535 170.56C126.295 171.053 124.915 171.3 123.395 171.3C121.862 171.3 120.468 171.053 119.215 170.56C117.962 170.067 116.888 169.36 115.995 168.44C115.115 167.52 114.428 166.407 113.935 165.1C113.455 163.793 113.215 162.327 113.215 160.7C113.215 159.087 113.455 157.627 113.935 156.32C114.428 155.013 115.115 153.907 115.995 153C116.888 152.093 117.962 151.393 119.215 150.9C120.468 150.407 121.862 150.16 123.395 150.16ZM123.395 167.5C125.102 167.5 126.362 166.927 127.175 165.78C128.002 164.633 128.415 162.953 128.415 160.74C128.415 158.527 128.002 156.84 127.175 155.68C126.362 154.52 125.102 153.94 123.395 153.94C121.662 153.94 120.375 154.527 119.535 155.7C118.708 156.86 118.295 158.54 118.295 160.74C118.295 162.94 118.708 164.62 119.535 165.78C120.375 166.927 121.662 167.5 123.395 167.5Z" fill="white"/>
</svg>
